<svg xmlns="http://www.w3.org/2000/svg" xmlns:xlink="http://www.w3.org/1999/xlink" fill="none" version="1.1" width="430" height="816" viewBox="0 0 430 816"><defs><clipPath id="master_svg0_13_4954"><rect x="0" y="0" width="430" height="816" rx="0"/></clipPath></defs><g clip-path="url(#master_svg0_13_4954)"><g style="opacity:0.38999998569488525;"><path d="M352.61994384765626,86.3802490234375L76.47274384765625,86.3802490234375C55.02154384765625,86.3802490234375,39.37994384765625,99.1999490234375,39.37994384765625,126.36794902343749L39.37994384765625,814.6192490234375L391.61994384765626,814.6192490234375L391.61994384765626,135.7781490234375C391.61994384765626,108.6101490234375,374.0709438476562,86.3802490234375,352.61994384765626,86.3802490234375Z" fill="#FFFFFF" fill-opacity="1"/><path d="M392.99794384765624,815.9972490234375L392.99794384765624,135.7781490234375Q392.99794384765624,125.5482490234375,389.84894384765624,116.1600490234375Q386.8019438476563,107.0756490234375,381.24594384765624,100.0373490234375Q375.6599438476562,92.9627990234375,368.41594384765625,89.0646790234375Q360.86594384765624,85.0022190234375,352.61994384765626,85.0022190234375L76.47274384765625,85.0022190234375Q68.07654384765625,85.0022190234375,61.15734384765625,87.5123990234375Q54.00534384765625,90.1070090234375,48.90706384765625,95.2123390234375Q43.61876384765625,100.5079490234375,40.86202384765625,108.1930490234375Q38.00191384765625,116.1663490234375,38.00191384765625,126.36794902343749L38.00191384765625,815.9972490234375L392.99794384765624,815.9972490234375ZM387.23594384765624,117.0364490234375Q390.2419438476563,125.99814902343749,390.2419438476563,135.7781490234375L390.2419438476563,813.2412490234375L40.75797384765625,813.2412490234375L40.75797384765625,126.36794902343749Q40.75797384765625,116.6456490234375,43.45623384765625,109.12364902343751Q46.00473384765625,102.0190490234375,50.85724384765625,97.1598490234375Q55.521943847656246,92.4886190234375,62.09724384765625,90.1032390234375Q68.56104384765625,87.7582790234375,76.47274384765625,87.7582790234375L352.61994384765626,87.7582890234375Q360.1719438476562,87.7582790234375,367.10994384765627,91.4916790234375Q373.85094384765625,95.1190690234375,379.08194384765625,101.7451490234375Q384.34194384765624,108.4069490234375,387.23594384765624,117.0364490234375Z" fill-rule="evenodd" fill="#FFFFFF" fill-opacity="1"/></g><g><g><g><path d="M322.5732749909375,93.6019572265625C329.4949524609375,96.9946572265625,336.4133724609375,100.3971572265625,343.3415724609375,103.7735572265625C350.0834724609375,107.0582572265625,356.8384724609375,110.3135572265625,363.5803724609375,113.5950572265625C364.2536724609375,113.9222572265625,364.8581724609375,114.1839572265625,365.6261724609375,113.8175572265625C378.24397246093747,107.8107572265625,390.8716724609375,101.8366572265625,403.4959724609375,95.8561572265625C403.6136724609375,94.5179572265625,402.66267246093753,94.3249572265625,401.9502724609375,93.9879572265625C397.8978724609375,92.0609572265625,393.8553724609375,90.1241572265625,389.8421724609375,88.07935722656251C380.0773724609375,83.1064572265625,370.2013724609375,78.4377872265625,360.5149724609375,73.2522042265625C359.5149724609375,72.7156522265625,358.5901724609375,72.6698492265625,357.5476724609375,73.1082502265625C352.4070724609375,75.2740872265625,347.53767246093753,78.1695072265625,342.5605724609375,80.7737472265625C336.3120724609375,84.0454572265625,330.1780024609375,87.5886572265625,324.2269524609375,91.5604572265625C323.5177774609375,92.0315572265625,322.5014280609375,92.2245572265625,322.5700835609375,93.5986572265625L322.5732749909375,93.6019572265625Z" fill="#A493AA" fill-opacity="1"/></g><g><path d="M351.011529296875,59.7271C350.884029296875,58.8994,350.782729296875,58.0684,350.629129296875,57.2504C350.155229296875,54.7084,349.040829296875,53.2427,346.697629296875,52.450900000000004C333.347829296875,47.95239,320.056829296875,43.20194,306.746149296875,38.536552C306.311489296875,38.382784,305.870319296875,38.251918,305.092529296875,38C306.213459296875,39.89756,307.164459296875,41.50722,308.115449296875,43.1136C308.115449296875,44.16708,308.484729296875,45.05697,308.925909296875,45.95668C311.916149296875,52.0518,313.242969296875,58.8012,314.46519929687497,65.5932C315.197229296875,69.6599,315.595929296875,73.7887,316.220129296875,77.875C316.981629296875,78.9514,317.729929296875,78.5719,318.478329296875,77.8455C320.729929296875,75.6601,322.955529296875,73.43209999999999,325.364029296875,71.4724C330.703929296875,67.1243,336.383829296875,63.5713,342.553829296875,61.1306C344.893729296875,60.2048,347.243429296875,59.9627,349.661729296875,60.6661C350.276129296875,60.846000000000004,351.207529296875,61.304,351.014729296875,59.7238L351.011529296875,59.7271Z" fill="#FEFEFE" fill-opacity="1"/></g><g><path d="M400.0581064453125,82.6875095703125C401.2085064453125,82.2033095703125,402.3588064453125,81.7191095703125,403.78370644531253,81.1204095703125C402.8817064453125,80.6231095703125,402.1921064453125,80.2043095703125,401.4764064453125,79.8510095703125C387.6887064453125,73.0787095703125,373.7211064453125,66.8363595703125,359.7863064453125,60.4958805703125C359.1883064453125,60.2243321703125,358.5968064453125,60.1294536703125,357.9791064453125,60.2047029703125C355.9791064453125,60.4533495703125,354.0281064453125,60.9277395703125,352.2110064453125,61.9975695703125C349.6489064453125,62.1971495703125,347.71420644531247,64.0848895703125,345.6064064453125,65.4655295703125C342.6554064453125,67.3990895703125,339.9364064453125,69.7579495703125,337.2206064453125,72.1103095703125C331.9787064453125,77.2304095703125,326.6649264453125,82.2426095703125,321.1812264453125,86.9996095703125C320.6027764453125,87.5002095703125,320.0668374453125,88.0596095703125,319.5439424453125,88.6420095703125C319.3315134153125,88.9495095703125,319.2628977453125,89.2832095703125,319.4197563453125,89.6562095703125C320.8315264453125,91.0336095703125,322.2073864453125,91.4327095703125,324.0538264453125,90.4152095703125C327.3577864453125,88.5994095703125,330.6225064453125,86.6855095703125,333.9004064453125,84.81740957031249C341.5737064453125,80.4432095703125,349.3091064453125,76.2260095703125,356.9203064453125,71.7079095703125C357.3320064453125,71.4625095703125,357.7634064453125,71.2564095703125,358.1033064453125,70.8736095703125C358.3255064453125,70.5137095703125,358.4399064453125,69.9673395703125,358.1425064453125,69.7841295703125C357.2144064453125,69.2213995703125,358.6556064453125,69.42096957031251,358.2798064453125,69.0938095703125C358.3909064453125,68.8189895703125,358.4464064453125,68.5278095703125,358.4497064453125,68.2300895703125C358.4628064453125,66.4928395703125,357.8942064453125,66.0413495703125,356.5837064453125,66.8363595703125C355.3255064453125,67.5986595703125,354.0510064453125,68.3282395703125,352.7993064453125,69.1003495703125C344.6816064453125,74.1649095703125,336.4952064453125,79.07560957031251,329.1911764453125,83.6919095703125C335.5802064453125,78.2414095703125,342.5933064453125,71.9663095703125,350.5183064453125,67.3270995703125C352.5019064453125,66.0871395703125,354.5510064453125,65.0402095703125,356.6752064453125,64.1666795703125C358.1589064453125,63.5581495703125,359.5314064453125,63.5646895703125,360.9498064453125,64.4022395703125C361.8583064453125,64.9387895703125,362.8289064453125,65.3313895703125,363.7831064453125,65.7534295703125C375.0611064453125,71.4559095703125,386.4403064453125,76.8771095703125,397.7379064453125,82.5207095703125C398.4699064453125,82.8871095703125,399.2444064453125,83.4237095703125,400.0581064453125,82.6875095703125Z" fill="#FEFEFE" fill-opacity="1"/></g><g><path d="M337.397093359375,72.5192478515625C342.073693359375,68.5049078515625,346.799193359375,64.5821878515625,352.214293359375,62.0008478515625C351.828693359375,62.0139278515625,351.400593359375,62.1807878515625,351.335193359375,61.4283078515625C351.286193359375,60.8524878515625,351.338493359375,60.2341468515625,351.011693359375,59.7237686515625C350.913593359375,60.2635928515625,350.720793359375,60.6463768515625,350.171793359375,60.4108168515625C346.32539335937497,58.7717148515625,342.776293359375,60.3093958515625,339.312193359375,61.9942978515625C333.897093359375,64.6279878515625,328.730393359375,67.8440278515625,324.040753359375,72.0219478515625C322.044003359375,73.7984478515625,320.079913359375,75.6305478515625,318.194263359375,77.56744785156249C317.573333359375,78.2053478515625,317.066793359375,78.1988478515625,316.416460359375,77.9567478515625C315.563512359375,79.7005478515625,315.991622359375,81.5555478515625,316.115808359375,83.3680478515625C316.177901359375,84.2612478515625,316.328238359375,85.1380478515625,316.161565359375,86.0344478515625C316.197509359375,86.9668478515625,316.321695359375,87.8469478515625,317.155033359375,88.2919478515625C317.730213359375,88.3736478515625,317.994923359375,87.8960478515625,318.190993359375,87.4085478515625C319.262913359375,84.7094478515625,320.978623359375,82.6646478515625,322.962293359375,80.90444785156251C326.691093359375,77.5935478515625,330.540793359375,74.5051478515625,334.939593359375,72.5257478515625C335.736993359375,72.1658478515625,336.580093359375,71.6882478515625,337.400393359375,72.5192478515625L337.397093359375,72.5192478515625Z" fill="#EDEDEE" fill-opacity="1"/></g><g><path d="M358.09989953125,69.2542399609375C357.77310253125,69.3785599609375,357.44302853125,69.5061599609375,356.98876953125,69.67954996093749C357.32865653125,70.1539399609375,358.44955953125,69.3851099609375,358.04759953125,70.6446899609375C358.39075953125,71.4102599609375,359.06394953125,71.6425499609375,359.66198953125,71.9435399609375C373.77976953125,79.0332099609375,387.87806953125,86.1851099609375,401.99586953125,93.2715099609375C403.78676953125,94.1712099609375,403.91746953125,94.0665099609375,403.89466953125,91.8450099609375C403.88486953125,91.01080996093751,404.04166953125,90.1601099609375,403.78026953125,89.3389099609375C403.25086953125,88.7435099609375,402.36526953125,88.7272099609375,402.01226953125,87.8438099609375C399.81616953125,86.2603099609375,397.35866953125003,85.3573099609375,395.00886953125,84.1861099609375C384.54796953125,78.9711099609375,374.09356953125,73.7364099609375,363.61631953125,68.5671799609375C362.41043953125,68.0469899609375,361.24373953125,67.4221019609375,360.05743953125,66.8528339609375C358.53780953125,66.1232519609375,358.27638953125,66.3424549609375,358.23062953125,68.2105699609375C358.22081953125,68.5639099609375,358.29597953125,68.9368799609375,358.09662953125,69.2574999609375L358.09989953125,69.2542399609375Z" fill="#C5C5C6" fill-opacity="1"/></g><g><path d="M316.390234765625,86.38130625C316.792234765625,85.56340625,316.847734765625,84.65060625000001,316.648434765625,83.79340625C316.194134765625,81.85660625,316.517634765625,79.90010625,316.416334765625,77.96000624999999C316.272534765625,73.14740625,315.367334765625,68.47220625,314.556834765625,63.780606250000005C313.514334765625,57.75750625,312.164664765625,51.85545625,309.635224765625,46.41795625C309.125414765625,45.321946249999996,308.625404765625,44.21939625,308.118864765625,43.11684825C308.109044765625,43.72864625,307.850884765625,43.71228625,307.439104765625,43.55524625C306.288754765625,43.11684825,305.118824765625,42.75696525,303.971744765625,42.31201925C302.870423765625,41.88670325,303.383504765625,42.68498925,303.471727765625,43.17573825C303.468456765625,45.84541625,304.504414765625,48.19119625,305.229924765625,50.60894625C308.246294765625,60.67260625,311.194054765625,70.75910625,314.164734765625,80.84240625000001C314.583034765625,82.26550625,315.083034765625,83.65600624999999,315.494734765625,85.08570625C315.648334765625,85.62550625,315.730034765625,86.30600625,316.396734765625,86.38450625L316.390234765625,86.38130625Z" fill="#E7E7E8" fill-opacity="1"/></g><g><path d="M403.78685419921874,89.3389533203125C403.77705419921875,89.5188533203125,403.76075419921875,89.7020533203125,403.7574541992187,89.88205332031251C403.71165419921874,93.7131533203125,403.7280541992187,93.67055332031251,400.65935419921874,92.1165533203125C386.5611541992188,84.9777533203125,372.45305419921874,77.8652033203125,358.34505419921874,70.7460743203125C358.2502541992188,70.7002709203125,358.14895419921874,70.6773694203125,358.04765419921875,70.6446533203125C347.46255419921874,76.6416033203125,336.87745419921873,82.6352533203125,326.29232419921874,88.6322533203125C325.92303419921876,88.8416533203125,325.53416419921876,89.0150533203125,325.19100419921875,89.2734533203125C323.30535419921875,90.6933533203125,321.4099241992187,91.21035332031249,319.45563419921876,89.4534533203125C318.44580719921873,89.7053533203125,318.0569120992188,90.4741533203125,318.14188379921876,91.6388533203125C319.61903419921873,92.2932533203125,321.0961641992188,92.9475533203125,322.57331419921877,93.6018533203125C322.77593419921874,93.08495332031251,323.11581419921873,92.7381533203125,323.53736419921876,92.47315332031249C330.35445419921876,88.1382533203125,337.25645419921875,84.0159533203125,344.35785419921876,80.3484033203125C348.86455419921873,78.0222533203125,353.2665541992188,75.4278233203125,357.9103541992188,73.4615533203125C358.7862541992188,73.0885833203125,359.4626541992187,73.1900033203125,360.23715419921876,73.5989633203125C369.16545419921874,78.3232433203125,378.19825419921875,82.7530533203125,387.22445419921877,87.2090533203125C392.28005419921874,89.7053533203125,397.28675419921876,92.3390533203125,402.40115419921875,94.6651533203125C402.9207541992188,94.9007533203125,403.2606541992187,95.2933533203125,403.49915419921876,95.8527533203125C403.92735419921877,95.6630533203125,404.37505419921877,95.51905332031251,404.77375419921873,95.2606533203125C405.0319541992187,95.0937533203125,405.28675419921876,94.5506533203125,404.97635419921875,94.3969533203125C403.3129541992188,93.57895332031251,404.20185419921876,91.9464533203125,404.0285541992188,90.6573533203125C403.96975419921876,90.2124533203125,404.2246541992188,89.6857533203125,403.78675419921876,89.3323533203125L403.78685419921874,89.3389533203125Z" fill="#7B6A82" fill-opacity="1"/></g><g><path d="M363.629270515625,68.89433375C366.534543515625,70.79189375,369.688193515625,72.03839375,372.724153515625,73.58262375C380.417053515625,77.48899375,388.136153515625,81.32009375,395.871553515625,85.10539375C397.891153515625,86.09349375,399.82255351562503,87.38899375,402.018653515625,87.84379375C403.057953515625,87.25159375,404.097153515625,86.65619375,405.456653515625,85.87749375C403.835753515625,85.06619375,402.463153515625,84.41839375,401.123253515625,83.68549375C400.724553515625,83.46959375,400.015353515625,83.59389375,400.061153515625,82.68769375C397.731053515625,82.55679375,395.819253515625,81.00599375,393.763653515625,80.01139375C383.792953515625,75.17919375,373.867953515625,70.22262375,363.926631515625,65.30859375C363.606372515625,66.47984375,362.423351515625,67.54968375,363.632502515625,68.89433375L363.629270515625,68.89433375Z" fill="#E0DEE1" fill-opacity="1"/></g><g><path d="M318.141844609375,91.638691484375C318.435974609375,90.788051484375,318.844474609375,90.035581484375,319.455594609375,89.456491484375C319.586314609375,89.260191484375,319.713754609375,89.063891484375,319.844484609375,88.867591484375C319.547104609375,87.506580484375,319.125514609375,87.385530484375,317.628754609375,88.229619484375C316.926124609375,88.337585484375,316.256184609375,88.546971484375,315.765984609375,89.214391484375C315.674474609375,89.355071484375,315.592774609375,89.505561484375,315.524154609375,89.662601484375C315.063374609375,91.318061484375,314.226760609375,92.773951484375,313.850930609375,94.501391484375C313.164654609375,97.671621484375,313.756164609375,100.370721484375,315.599314609375,102.729621484375C317.828104609375,105.58252148437501,320.498074609375,107.71562148437499,323.563494609375,109.106121484375C328.710574609375,111.43872148437501,333.606074609375,114.396321484375,338.41987460937503,117.520821484375C342.047374609375,119.876421484375,344.132374609375,123.858021484375,345.619374609375,128.291121484375C345.805574609375,128.850521484375,345.965774609375,129.419821484375,346.145474609375,130.015221484375Q347.560574609375,128.00642148437498,349.357974609375,128.559321484375C349.119374609375,127.175421484375,348.573574609375,126.053221484375,347.982074609375,124.957221484375C345.400374609375,120.17412148437501,341.645474609375,116.922021484375,337.609474609375,114.056121484375C334.655174609375,111.955721484375,331.530874609375,110.260921484375,328.321674609375,108.759221484375C325.158274609375,107.280521484375,322.158224609375,105.441821484375,319.462114609375,102.952021484375C316.082974609375,99.830921484375,315.700624609375,96.287701484375,318.141844609375,91.638691484375Z" fill="#E89089" fill-opacity="1"/></g><g><path d="M315.7823396484375,89.535248046875C316.3019396484375,89.149248046875,316.8248396484375,88.763148046875,317.3444396484375,88.37714804687499C317.3346396484375,88.301848046875,317.3248396484375,88.226648046875,317.3117396484375,88.154648046875C316.5633396484375,87.88304804687499,316.7888396484375,86.908148046875,316.3901396484375,86.38134804687499C314.44243964843747,80.727948046875,312.8966396484375,74.90444804687499,311.1744396484375,69.156148046875C308.5828696484375,60.505848046875,306.0338196484375,51.835938046875,303.4684096484375,43.175852046875C302.8049896484375,43.817098046875,302.25923964843753,42.992639046875,301.6448496484375,42.973009046875C301.1317696484375,42.956651046875,300.6742586484375,42.295775046875,300.1121485484375,42.783253046875C300.0304481484375,43.476845046875,300.2232696484375,44.111548046875,300.4748936484375,44.700448046875C303.5566296484375,51.888278046875,305.4618896484375,59.645348046875,308.2560496484375,66.980448046875C311.0632396484375,74.354748046875,313.0077396484375,82.138048046875,315.7790396484375,89.535248046875L315.7823396484375,89.535248046875Z" fill="#7B6A82" fill-opacity="1"/></g><g><path d="M315.7823560546875,89.53508105468751C315.7757560546875,88.9363810546875,315.8411560546875,88.34098105468749,315.6287560546875,87.7520810546875C311.9751560546875,77.6753810546875,308.9914160546875,67.2877810546875,305.3377760546875,57.2077810546875C303.7135760546875,52.7289310546875,302.3083160546875,48.1355210546875,300.5893320546875,43.6991460546875C300.4651450546875,43.3752520546875,300.2755950546875,43.0873450546875,300.1154650546875,42.7830810546875C299.3768900546875,43.2247550546875,299.6710192546875,43.8790910546875,299.8834280546875,44.4876110546875C303.7429560546875,55.5163810546875,307.2201360546875,66.7283810546875,311.2822560546875,77.6622810546875C312.7561560546875,81.6307810546875,313.8051560546875,85.8119810546875,315.5306560546875,89.66268105468751C315.6189560546875,89.6299810546875,315.7039560546875,89.5874810546875,315.7856560546875,89.53508105468751L315.7823560546875,89.53508105468751Z" fill="#A493AA" fill-opacity="1"/></g><g><path d="M317.311767578125,88.154517578125C317.321581208125,88.229717578125,317.334646078125,88.305017578125,317.344439778125,88.376917578125C318.184322578125,88.501317578125,319.184337578125,87.470717578125,319.844477578125,88.864417578125C323.014467578125,85.622217578125,326.543937578125,82.932917578125,329.831567578125,79.867357578125C332.393667578125,77.479047578125,334.877367578125,74.969687578125,337.397067578125,72.515937578125C337.439467578125,71.442837178125,336.975467578125,71.331599578125,336.217267578125,71.576973578125C333.570167578125,72.434149578125,331.174667578125,73.922757578125,328.844567578125,75.578217578125C326.171347578125,77.482317578125,323.638627578125,79.628527578125,321.213787578125,81.944817578125C319.458857578125,83.619917578125,318.494787578125,85.978817578125,317.311767578125,88.147917578125L317.311767578125,88.154517578125Z" fill="#E7E7E8" fill-opacity="1"/></g><g><path d="M350.3547423828125,67.0098876953125C345.5801423828125,69.6043176953125,341.2500423828125,73.0657276953125,336.9493123828125,76.5664076953125C333.9557923828125,79.0037876953125,331.0668823828125,81.6178876953125,328.1322043828125,84.1533876953125C327.8577013828125,84.3921876953125,327.5145433828125,84.5623876953125,327.4034423828125,85.2722876953125C335.9525923828125,79.9917876953125,344.3807423828125,74.7898876953125,352.8057423828125,69.5846876953125C352.6815423828125,67.8147136953125,351.3449423828125,67.6380456953125,350.3547423828125,67.0098876953125Z" fill="#BABBBC" fill-opacity="1"/></g><g><path d="M350.354736328125,67.009743359375C350.920097328125,68.197353359375,352.364576328125,68.233343359375,352.805746328125,69.584533359375C354.080286328125,68.845143359375,355.367866328125,68.135193359375,356.622816328125,67.35653335937499C358.050936328125,66.469913359375,358.067296328125,66.463373359375,358.093426328125,68.360933359375C358.096696328125,68.658663359375,358.096696328125,68.959653359375,358.099966328125,69.257373359375C358.841806328125,68.688103359375,357.802566328125,67.062083359375,358.907156328125,66.960663359375C359.632646328125,66.895233359375,360.394136328125,67.683703359375,361.171936328125,67.958523359375C361.998736328125,68.246433359375,362.711136328125,68.953103359375,363.629436328125,68.894213359375C362.861536328125,67.601913359375,364.394136328125,66.568063359375,363.923636328125,65.308483359375C363.544536328125,65.135083359375,363.132736328125,65.030383359375,362.796136328125,64.781743359375C359.969306328125,62.687878359375,357.165356328125,63.051033359375,354.296026328125,64.703223359375C352.979006328125,65.462243359375,351.583556328125,66.034783359375,350.358047428125,67.009743359375L350.354736328125,67.009743359375Z" fill="#CFCFCF" fill-opacity="1"/></g></g><g><g><path d="M368.51171875,449.5387541015625C370.08365875,450.1898541015625,370.43331875,451.3283541015625,370.54114875,452.7777541015625C370.76988875,455.7974541015625,373.15228875,458.0713541015625,376.28630875,458.3853541015625C377.51181875,458.5064541015625,378.76671875,458.5064541015625,379.99221875,458.3821541015625C381.03471875,458.2741541015625,381.67521875,458.6143541015625,382.24721875,459.4584541015625C383.20791875,460.8783541015625,384.25701875,462.2394541015625,385.28321875,463.6102541015625C386.16221875,464.7847541015625,387.68841875,464.4346541015625,388.84861875,463.5578541015625C389.75381875,462.8740541015625,389.23741875,461.6537541015625,390.49241875,461.2840541015625C387.19501875,459.07245410156247,384.08711875,456.9883541015625,380.74391875,454.7440541015625C381.28641875,454.5477541015625,381.59361875,454.3939541015625,381.92041875,454.3219541015625C383.67201875,453.9457541015625,385.17531875,453.24885410156253,385.92371875,451.4625541015625C386.00871875,451.2564541015625,386.19491875,451.0077541015625,386.38451875,450.9456541015625C388.17211875,450.3730541015625,389.49241875,449.3556541015625,390.41071875,447.6347541015625C391.26041875,446.0348541015625,392.58391875,444.6836541015625,393.44021875,443.0870541015625C394.22121875,441.6344541015625,394.72771875,440.0150541015625,395.20821875,438.4249541015625C395.37161875,437.8818741015625,395.09381875,437.2046641015625,395.01861875,436.5895841015625C394.45651875,436.8088041015625,393.72781875,436.8709441015625,393.36181875,437.2700741015625C391.94671875,438.8110541015625,390.73101875,440.5450541015625,389.27671875,442.0466541015625C387.84211875,443.5287541015625,386.21131875,444.8144541015625,384.48251875,446.0479541015625C384.64921875,444.0620541015625,383.74721875,442.3836541015625,384.00221875,440.4435541015625C384.34201875,437.8393441015625,383.80281875000003,435.1009641015625,382.80281875000003,432.6014141015625C382.20151875,431.0997341015625,381.27331875,429.7223341015625,380.43671875,428.3220951015625C380.04461875,427.6644891015625,379.59031875,427.8378963015625,379.26351875,428.4464201015625C379.19821875,428.5674701015625,379.14591875,428.7277781015625,379.16221875,428.8586521015625C379.55111875,431.6395641015625,378.36483875,434.1914741015625,378.03476875,436.8578441015625C377.84196875,438.4151541015625,378.18181875,440.0673541015625,378.44653875,441.6475541015625C378.90411875,444.3793541015625,378.41386875,446.8822541015625,376.79944875,449.1004541015625C375.86806875,450.3796541015625,374.33207875,450.4090541015625,373.00855875,449.36865410156247C371.05101875,447.8309541015625,370.91046875,447.8309541015625,368.5117586428,449.5453541015625L368.51171875,449.5387541015625Z" fill="#FFFFFF" fill-opacity="1"/></g><g><path d="M321.7661430078125,436.30808217C321.5243130078125,436.5828905,321.3707230078125,436.6745065,321.3543730078125,436.7890065C321.0144830078125,438.8861475,320.6190630078125,440.9767475,320.3968430078125,443.0869475C320.2857230078125,444.1567875,320.3249530078125,445.3051475,320.5994630078125,446.3389875C321.1158130078125,448.2724875,320.7596130078125,450.0359875,319.8935730078125,451.72078750000003C319.1157830078125,453.2322875,317.8118530078125,453.4547875,316.4621530078125,452.4307875C315.1418830078125,451.4296875,314.9261830078125,451.4394875,313.7725830078125,452.36208750000003C314.1353280078125,453.4613875,314.5699800078125,454.4232875,314.7660530078125,455.4308875C315.2464430078125,457.8944875,317.2268830078125,459.6676875,320.2399830078125,459.35688749999997C322.5700630078125,459.1180875,323.7629030078125,460.0406875,324.7759830078125,461.7942875C325.0145830078125,462.2032875,325.2694830078125,462.65148750000003,325.6321830078125,462.9295875C326.1419830078125,463.3188875,326.7334830078125,463.7375875,327.3380830078125,463.8292875C328.2008830078125,463.9600875,328.8315830078125,463.4726875,329.0537830078125,462.5434875C329.1289830078125,462.2326875,329.3511830078125,461.9577875,329.6093830078125,461.4670875C327.2923830078125,459.8933875,324.9654830078125,458.3066875,322.2693930078125,456.4744875C324.3739830078125,456.1636875,325.5014830078125,455.1658875,326.6909830078125,453.9192875C327.6256830078125,452.9410875,328.9949830078125,452.3161875,329.8871830078125,451.0958875C331.5145830078125,448.8776875,332.8512830078125,446.5449875,333.5146830078125,443.8688075C333.5832830078125,443.5874475,333.3643830078125,443.0639875,333.1192830078125,442.9232875C332.9198830078125,442.8087875,332.3773830078125,442.9919775,332.1780830078125,443.2144675C331.1583830078125,444.3431775,330.2596830078125,445.5896975,329.2008830078125,446.6791875C328.0406830078125,447.8732875,326.7531830078125,448.9398875,325.5210830078125,450.0652875C325.3674830078125,449.9671875,325.2171830078125,449.8657875,325.0635830078125,449.7675875C324.9752830078125,447.5951875,324.9687830078125,445.4162475,324.7726830078125,443.2536875C324.5373830078125,440.6494575,323.4099230078125,438.4051075,321.7628730078125,436.3046875L321.7661430078125,436.30808217Z" fill="#FFFFFF" fill-opacity="1"/></g><g><path d="M334.4786376953125,425.8586466015625C334.5570669953125,426.8368666015625,334.5864676953125,427.7071666015625,334.7041116953125,428.5642666015625C335.0635856953125,431.1914666015625,337.2662276953125,433.5208666015625,340.1322876953125,433.9036666015625C341.7859276953125,434.1261666015625,342.8970176953125,434.9112666015625,344.0408276953125,435.9745666015625C344.6552376953125,436.5438666015625,345.5604376953125,436.93646660156253,346.3905376953125,437.0869666015625C346.8218376953125,437.1654666015625,347.4689376953125,436.6158666015625,347.8317376953125,436.1905666015625C347.9461376953125,436.0530666015625,347.5539376953125,435.29086660156247,347.2271376953125,435.0094666015625C346.2631376953125,434.1751666015625,345.2140376953125,433.4390666015625,344.4035676953125,432.8174666015625C347.0408376953125,427.5108666015625,349.9167376953125,422.4888566015625,348.1356376953125,416.2857666015625C346.8644376953125,419.4167266015625,343.7238376953125,421.6120366015625,344.1127076953125,425.5413066015625C343.9525776953125,425.5478566015625,343.7891776953125,425.5576766015625,343.6290476953125,425.5641866015625C343.3153376953125,425.2337466015625,342.9264176953125,424.9458366015625,342.6976776953125,424.5630466015625C341.7401276953125,422.9599166015625,340.9852376953125,421.2063166015625,339.8479676953125,419.7438966015625C339.0244276953125,418.6871566015625,337.7237576953125,418.0033866015625,336.4100076953125,417.3915866015625C336.8936676953125,419.3251466015625,337.2008876953125,421.3241266015625,337.9132876953125,423.1693466015625C338.6061076953125,424.9687666015625,339.7139676953125,426.6078666015625,340.6812876953125,428.3974666015625C338.7270176953125,428.8783666015625,337.8609876953125,428.5086666015625,337.0864676953125,427.0266666015625C336.4753476953125,425.8554166015625,335.6812076953125,425.2632266015625,334.4786376953125,425.8586466015625Z" fill="#FFFFFF" fill-opacity="1"/></g><g><path d="M302.63835671875,416.691345703125C305.23643671875,414.941055703125,307.39004671875,413.059845703125,307.88352671875,409.977925703125C307.75606671875,409.860155703125,307.63187671875,409.739105703125,307.50443671875,409.621325703125C306.49461671875,410.887465703125,305.48480671875,412.150315703125,304.47498671875,413.416445703125C304.26909671875,413.292125703125,304.06320671875,413.167795703125,303.85731671875,413.043475703125C303.34750671875,410.936545703125,303.96516671875,408.476245703125,301.84422671875,406.454345703125C301.74292671875,408.433715703125,301.65794671875,410.095705703125,301.56645671875,411.757695703125C301.53703671875,412.323685703125,301.59260671875,412.925655703125,301.42266671875,413.449155703125C301.10240671875,414.443755703125,300.59584671875,415.225685703125,299.33766671875,414.450305703125C299.03047071875,414.260565703125,298.57293971875,414.309605703125,298.10888671875,414.237635703125C298.31804471875,414.967215703125,298.48144571875,415.497215703125,298.62523971875,416.033775703125C298.96837771875,417.335845703125,299.93571671875,418.000045703125,301.14813671875,417.931345703125C302.44553671875,417.859345703125,303.15470671875,418.405745703125,303.81158671875,419.383945703125C304.05341671875,419.743845703125,304.58610671875,420.002345703125,305.03054671875,420.087345703125C305.21355671875,420.123345703125,305.75278671875,419.524645703125,305.70048671874997,419.325045703125C305.59917671875,418.932545703125,305.24949671875,418.556245703125,304.91290671875,418.287945703125C304.22335671875,417.738345703125,303.47171671875,417.267245703125,302.64162671875,416.688145703125L302.63835671875,416.691345703125Z" fill="#FFFFFF" fill-opacity="1"/></g></g></g></g></svg>