<svg xmlns="http://www.w3.org/2000/svg" xmlns:xlink="http://www.w3.org/1999/xlink" fill="none" version="1.1" width="430" height="932" viewBox="0 0 430 932"><defs><clipPath id="master_svg0_9_0900"><rect x="0" y="0" width="430" height="932" rx="0"/></clipPath><radialGradient cx="0" cy="0" r="1" gradientUnits="userSpaceOnUse" id="master_svg1_9_1189" gradientTransform="translate(210.66863039322197 680.6645393371582) rotate(0) scale(125.94362711533904 124.63954848873229)"><stop offset="0%" stop-color="#E2A45D" stop-opacity="1"/><stop offset="38.999998569488525%" stop-color="#D79351" stop-opacity="1"/><stop offset="100%" stop-color="#C1713A" stop-opacity="1"/></radialGradient><radialGradient cx="0" cy="0" r="1" gradientUnits="userSpaceOnUse" id="master_svg2_9_1190" gradientTransform="translate(209.50457273336178 685.1551580429077) rotate(0) scale(119.57696807784669 118.33878605720999)"><stop offset="0%" stop-color="#C1713A" stop-opacity="1"/><stop offset="34.00000035762787%" stop-color="#B06732" stop-opacity="1"/><stop offset="100%" stop-color="#854F20" stop-opacity="1"/></radialGradient><radialGradient cx="0" cy="0" r="1" gradientUnits="userSpaceOnUse" id="master_svg3_9_1191" gradientTransform="translate(207.94783159886356 705.7687969207764) rotate(0) scale(115.74333500405919 114.54487195121405)"><stop offset="0%" stop-color="#F5DC8A" stop-opacity="1"/><stop offset="41.999998688697815%" stop-color="#F8D379" stop-opacity="1"/><stop offset="100%" stop-color="#FFC45C" stop-opacity="1"/></radialGradient><radialGradient cx="0" cy="0" r="1" gradientUnits="userSpaceOnUse" id="master_svg4_9_1192" gradientTransform="translate(211.15681108268836 664.3217064830894) rotate(0) scale(125.59201679193757 124.29157317586068)"><stop offset="0%" stop-color="#FBBB6C" stop-opacity="1"/><stop offset="34.99999940395355%" stop-color="#F0B35B" stop-opacity="1"/><stop offset="100%" stop-color="#D8A033" stop-opacity="1"/></radialGradient><linearGradient x1="1.0000101327896118" y1="0.4997698962688446" x2="-2.7755575615628914e-16" y2="0.4997698962688446" id="master_svg5_9_1193"><stop offset="0%" stop-color="#C1713A" stop-opacity="1"/><stop offset="9.000000357627869%" stop-color="#C0733D" stop-opacity="1"/><stop offset="17.000000178813934%" stop-color="#BF7B49" stop-opacity="1"/><stop offset="25.999999046325684%" stop-color="#BD885D" stop-opacity="1"/><stop offset="34.00000035762787%" stop-color="#BA9B78" stop-opacity="1"/><stop offset="41.999998688697815%" stop-color="#B7B29B" stop-opacity="1"/><stop offset="50%" stop-color="#B3CFC5" stop-opacity="1"/><stop offset="57.999998331069946%" stop-color="#B2BAA4" stop-opacity="1"/><stop offset="76.99999809265137%" stop-color="#B18955" stop-opacity="1"/><stop offset="91.00000262260437%" stop-color="#B16924" stop-opacity="1"/><stop offset="98.00000190734863%" stop-color="#B15E11" stop-opacity="1"/></linearGradient><radialGradient cx="0" cy="0" r="1" gradientUnits="userSpaceOnUse" id="master_svg6_9_1194" gradientTransform="translate(210.66863039322197 748.3690099716187) rotate(0) scale(125.76952384971082 124.46723291234274)"><stop offset="0%" stop-color="#FBBB6C" stop-opacity="1"/><stop offset="34.99999940395355%" stop-color="#F0B35B" stop-opacity="1"/><stop offset="100%" stop-color="#D8A033" stop-opacity="1"/></radialGradient><linearGradient x1="-8.049116928532385e-16" y1="0.500230073928833" x2="0.9999905228614807" y2="0.500230073928833" id="master_svg7_9_1195"><stop offset="0%" stop-color="#C1713A" stop-opacity="1"/><stop offset="9.000000357627869%" stop-color="#C0733D" stop-opacity="1"/><stop offset="17.000000178813934%" stop-color="#BF7B49" stop-opacity="1"/><stop offset="25.999999046325684%" stop-color="#BD885D" stop-opacity="1"/><stop offset="34.00000035762787%" stop-color="#BA9B78" stop-opacity="1"/><stop offset="41.999998688697815%" stop-color="#B7B29B" stop-opacity="1"/><stop offset="50%" stop-color="#B3CFC5" stop-opacity="1"/><stop offset="57.999998331069946%" stop-color="#B2BAA4" stop-opacity="1"/><stop offset="76.99999809265137%" stop-color="#B18955" stop-opacity="1"/><stop offset="91.00000262260437%" stop-color="#B16924" stop-opacity="1"/><stop offset="98.00000190734863%" stop-color="#B15E11" stop-opacity="1"/></linearGradient><linearGradient x1="262.82000732421875" y1="385.75" x2="146.25" y2="385.75" id="master_svg8_9_1196"><stop offset="0%" stop-color="#C1713A" stop-opacity="1"/><stop offset="43.00000071525574%" stop-color="#C27031" stop-opacity="1"/><stop offset="100%" stop-color="#833E31" stop-opacity="1"/></linearGradient><linearGradient x1="1" y1="0.499703973531723" x2="-7.993605777301127e-15" y2="0.499703973531723" id="master_svg9_9_1197"><stop offset="0%" stop-color="#C1713A" stop-opacity="1"/><stop offset="43.00000071525574%" stop-color="#C27031" stop-opacity="1"/><stop offset="100%" stop-color="#833E31" stop-opacity="1"/></linearGradient><radialGradient cx="0" cy="0" r="1" gradientUnits="userSpaceOnUse" id="master_svga_9_1198" gradientTransform="translate(6860.3045944980695 2012.7193886263121) rotate(0) scale(1128.1440937909065 11699.385462562504)"><stop offset="0%" stop-color="#E2A45D" stop-opacity="1"/><stop offset="38.999998569488525%" stop-color="#D79351" stop-opacity="1"/><stop offset="100%" stop-color="#C1713A" stop-opacity="1"/></radialGradient><radialGradient cx="0" cy="0" r="1" gradientUnits="userSpaceOnUse" id="master_svgb_9_1199" gradientTransform="translate(58.18985830603765 757.3164127298733) rotate(0) scale(11.811588453507284 11.689278084136635)"><stop offset="0%" stop-color="#E2A45D" stop-opacity="1"/><stop offset="38.999998569488525%" stop-color="#D79351" stop-opacity="1"/><stop offset="100%" stop-color="#C1713A" stop-opacity="1"/></radialGradient><linearGradient x1="-7.549516567451064e-15" y1="0.5000115036964417" x2="1" y2="0.5000115036964417" id="master_svgc_9_1200"><stop offset="0%" stop-color="#F5DC8A" stop-opacity="1"/><stop offset="12.999999523162842%" stop-color="#EDD88C" stop-opacity="1"/><stop offset="34.00000035762787%" stop-color="#D9CE94" stop-opacity="1"/><stop offset="57.999998331069946%" stop-color="#B8BEA0" stop-opacity="1"/><stop offset="85.00000238418579%" stop-color="#8AA7B1" stop-opacity="1"/><stop offset="100%" stop-color="#6E9ABC" stop-opacity="1"/></linearGradient><linearGradient x1="508.4700012207031" y1="385.75" x2="391.8999938964844" y2="385.75" id="master_svgd_9_1202"><stop offset="0%" stop-color="#C1713A" stop-opacity="1"/><stop offset="43.00000071525574%" stop-color="#C27031" stop-opacity="1"/><stop offset="100%" stop-color="#833E31" stop-opacity="1"/></linearGradient><linearGradient x1="1" y1="0.499703973531723" x2="-2.0872192862952943e-14" y2="0.499703973531723" id="master_svge_9_1203"><stop offset="0%" stop-color="#C1713A" stop-opacity="1"/><stop offset="43.00000071525574%" stop-color="#C27031" stop-opacity="1"/><stop offset="100%" stop-color="#833E31" stop-opacity="1"/></linearGradient><radialGradient cx="0" cy="0" r="1" gradientUnits="userSpaceOnUse" id="master_svgf_9_1204" gradientTransform="translate(14558.081597126322 2189.98527080263) rotate(0) scale(1077.701840089634 9617.145205277166)"><stop offset="0%" stop-color="#E2A45D" stop-opacity="1"/><stop offset="38.999998569488525%" stop-color="#D79351" stop-opacity="1"/><stop offset="100%" stop-color="#C1713A" stop-opacity="1"/></radialGradient><radialGradient cx="0" cy="0" r="1" gradientUnits="userSpaceOnUse" id="master_svgg_9_1205" gradientTransform="translate(140.27349145721064 757.4212234226659) rotate(0) scale(11.459972379168448 11.34130088967419)"><stop offset="0%" stop-color="#E2A45D" stop-opacity="1"/><stop offset="38.999998569488525%" stop-color="#D79351" stop-opacity="1"/><stop offset="100%" stop-color="#C1713A" stop-opacity="1"/></radialGradient><linearGradient x1="-2.6645352591003757e-15" y1="0.5" x2="1" y2="0.5" id="master_svgh_9_1206"><stop offset="0%" stop-color="#F5DC8A" stop-opacity="1"/><stop offset="12.999999523162842%" stop-color="#EDD88C" stop-opacity="1"/><stop offset="34.00000035762787%" stop-color="#D9CE94" stop-opacity="1"/><stop offset="57.999998331069946%" stop-color="#B8BEA0" stop-opacity="1"/><stop offset="85.00000238418579%" stop-color="#8AA7B1" stop-opacity="1"/><stop offset="100%" stop-color="#6E9ABC" stop-opacity="1"/></linearGradient><linearGradient x1="-1.7763568394002505e-14" y1="0.5" x2="1" y2="0.5" id="master_svgi_9_1207"><stop offset="0%" stop-color="#F5DC8A" stop-opacity="1"/><stop offset="12.999999523162842%" stop-color="#EDD88C" stop-opacity="1"/><stop offset="34.00000035762787%" stop-color="#D9CE94" stop-opacity="1"/><stop offset="57.999998331069946%" stop-color="#B8BEA0" stop-opacity="1"/><stop offset="85.00000238418579%" stop-color="#8AA7B1" stop-opacity="1"/><stop offset="100%" stop-color="#6E9ABC" stop-opacity="1"/></linearGradient><linearGradient x1="821.3699951171875" y1="385.75" x2="937.9400024414062" y2="385.75" id="master_svgj_9_1208"><stop offset="0%" stop-color="#C1713A" stop-opacity="1"/><stop offset="43.00000071525574%" stop-color="#C27031" stop-opacity="1"/><stop offset="100%" stop-color="#833E31" stop-opacity="1"/></linearGradient><linearGradient x1="4.529709940470639e-14" y1="0.499703973531723" x2="1" y2="0.499703973531723" id="master_svgk_9_1209"><stop offset="0%" stop-color="#C1713A" stop-opacity="1"/><stop offset="43.00000071525574%" stop-color="#C27031" stop-opacity="1"/><stop offset="100%" stop-color="#833E31" stop-opacity="1"/></linearGradient><linearGradient x1="-5.5067062021407764e-14" y1="0.5" x2="1.0001380443572998" y2="0.5" id="master_svgl_9_1211"><stop offset="0%" stop-color="#F5DC8A" stop-opacity="1"/><stop offset="12.999999523162842%" stop-color="#EDD88C" stop-opacity="1"/><stop offset="34.00000035762787%" stop-color="#D9CE94" stop-opacity="1"/><stop offset="57.999998331069946%" stop-color="#B8BEA0" stop-opacity="1"/><stop offset="85.00000238418579%" stop-color="#8AA7B1" stop-opacity="1"/><stop offset="100%" stop-color="#6E9ABC" stop-opacity="1"/></linearGradient><linearGradient x1="1055.8900146484375" y1="385.75" x2="1172.4599609375" y2="385.75" id="master_svgm_9_1212"><stop offset="0%" stop-color="#C1713A" stop-opacity="1"/><stop offset="43.00000071525574%" stop-color="#C27031" stop-opacity="1"/><stop offset="100%" stop-color="#833E31" stop-opacity="1"/></linearGradient><linearGradient x1="8.526512829121202e-14" y1="0.499703973531723" x2="1" y2="0.499703973531723" id="master_svgn_9_1213"><stop offset="0%" stop-color="#C1713A" stop-opacity="1"/><stop offset="43.00000071525574%" stop-color="#C27031" stop-opacity="1"/><stop offset="100%" stop-color="#833E31" stop-opacity="1"/></linearGradient><radialGradient cx="0" cy="0" r="1" gradientUnits="userSpaceOnUse" id="master_svgo_9_1214" gradientTransform="translate(36650.69520891458 2012.7193886263121) rotate(0) scale(1128.14535791846 11699.40129075668)"><stop offset="0%" stop-color="#E2A45D" stop-opacity="1"/><stop offset="38.999998569488525%" stop-color="#D79351" stop-opacity="1"/><stop offset="100%" stop-color="#C1713A" stop-opacity="1"/></radialGradient><radialGradient cx="0" cy="0" r="1" gradientUnits="userSpaceOnUse" id="master_svgp_9_1215" gradientTransform="translate(361.7273117715515 757.3164127298733) rotate(0) scale(11.811589241180855 11.689281579898438)"><stop offset="0%" stop-color="#E2A45D" stop-opacity="1"/><stop offset="38.999998569488525%" stop-color="#D79351" stop-opacity="1"/><stop offset="100%" stop-color="#C1713A" stop-opacity="1"/></radialGradient><linearGradient x1="1" y1="0.5" x2="1.9539925233402755e-14" y2="0.5" id="master_svgq_9_1216"><stop offset="0%" stop-color="#F5DC8A" stop-opacity="1"/><stop offset="12.999999523162842%" stop-color="#EDD88C" stop-opacity="1"/><stop offset="34.00000035762787%" stop-color="#D9CE94" stop-opacity="1"/><stop offset="57.999998331069946%" stop-color="#B8BEA0" stop-opacity="1"/><stop offset="85.00000238418579%" stop-color="#8AA7B1" stop-opacity="1"/><stop offset="100%" stop-color="#6E9ABC" stop-opacity="1"/></linearGradient><radialGradient cx="0" cy="0" r="1" gradientUnits="userSpaceOnUse" id="master_svgr_9_1217" gradientTransform="translate(132.34351625654176 703.8785734712942) rotate(0) scale(16.467948283730266 16.2974316636459)"><stop offset="0%" stop-color="#C1713A" stop-opacity="1"/><stop offset="34.00000035762787%" stop-color="#B06732" stop-opacity="1"/><stop offset="100%" stop-color="#854F20" stop-opacity="1"/></radialGradient><radialGradient cx="0" cy="0" r="1" gradientUnits="userSpaceOnUse" id="master_svgs_9_1218" gradientTransform="translate(186.338871261313 703.8785734712942) rotate(0) scale(16.467948283730266 16.2974316636459)"><stop offset="0%" stop-color="#C1713A" stop-opacity="1"/><stop offset="34.00000035762787%" stop-color="#B06732" stop-opacity="1"/><stop offset="100%" stop-color="#854F20" stop-opacity="1"/></radialGradient><radialGradient cx="0" cy="0" r="1" gradientUnits="userSpaceOnUse" id="master_svgt_9_1219" gradientTransform="translate(240.33422626608422 703.8785734712942) rotate(0) scale(16.467948283730266 16.2974316636459)"><stop offset="0%" stop-color="#C1713A" stop-opacity="1"/><stop offset="34.00000035762787%" stop-color="#B06732" stop-opacity="1"/><stop offset="100%" stop-color="#854F20" stop-opacity="1"/></radialGradient><radialGradient cx="0" cy="0" r="1" gradientUnits="userSpaceOnUse" id="master_svgu_9_1220" gradientTransform="translate(294.32945920054294 703.8785734712942) rotate(0) scale(16.467948283730266 16.2974316636459)"><stop offset="0%" stop-color="#C1713A" stop-opacity="1"/><stop offset="34.00000035762787%" stop-color="#B06732" stop-opacity="1"/><stop offset="100%" stop-color="#854F20" stop-opacity="1"/></radialGradient><linearGradient x1="-0.00011937447561649606" y1="0.4999241530895233" x2="1" y2="0.4999241530895233" id="master_svgv_9_1222"><stop offset="0%" stop-color="#E78139" stop-opacity="1"/><stop offset="14.000000059604645%" stop-color="#E1823E" stop-opacity="1"/><stop offset="31.999999284744263%" stop-color="#D1854F" stop-opacity="1"/><stop offset="51.99999809265137%" stop-color="#B88A6B" stop-opacity="1"/><stop offset="75%" stop-color="#949292" stop-opacity="1"/><stop offset="99.00000095367432%" stop-color="#679BC3" stop-opacity="1"/><stop offset="100%" stop-color="#649CC7" stop-opacity="1"/></linearGradient><linearGradient x1="24550.19673597254" y1="709.9028816223145" x2="24694.099995249882" y2="709.9028816223145" gradientUnits="userSpaceOnUse" id="master_svgw_9_1236"><stop offset="0%" stop-color="#C0723C" stop-opacity="1"/></linearGradient><linearGradient x1="0.5" y1="1" x2="0.5" y2="9.769962616701378e-15" id="master_svgx_9_1224"><stop offset="0%" stop-color="#E2A45D" stop-opacity="1"/><stop offset="38.999998569488525%" stop-color="#D79351" stop-opacity="1"/><stop offset="100%" stop-color="#C1713A" stop-opacity="1"/></linearGradient><linearGradient x1="2.6194324487249787e-16" y1="0.49998265504837036" x2="0.9999833106994629" y2="0.49998265504837036" id="master_svgy_9_1226"><stop offset="0%" stop-color="#E78139" stop-opacity="1"/><stop offset="14.000000059604645%" stop-color="#E1823E" stop-opacity="1"/><stop offset="31.999999284744263%" stop-color="#D1854F" stop-opacity="1"/><stop offset="51.99999809265137%" stop-color="#B88A6B" stop-opacity="1"/><stop offset="75%" stop-color="#949292" stop-opacity="1"/><stop offset="99.00000095367432%" stop-color="#679BC3" stop-opacity="1"/><stop offset="100%" stop-color="#649CC7" stop-opacity="1"/></linearGradient><linearGradient x1="0.4999953508377075" y1="0.21399301290512085" x2="0.4999953508377075" y2="0.9976140856742859" id="master_svgz_9_1227"><stop offset="0%" stop-color="#FAAE66" stop-opacity="1"/><stop offset="34.99999940395355%" stop-color="#F8AD66" stop-opacity="1"/><stop offset="50%" stop-color="#F2AC6A" stop-opacity="0.9800000190734863"/><stop offset="60.00000238418579%" stop-color="#E9AB70" stop-opacity="0.949999988079071"/><stop offset="68.00000071525574%" stop-color="#DBA878" stop-opacity="0.9100000262260437"/><stop offset="75.99999904632568%" stop-color="#C8A583" stop-opacity="0.8500000238418579"/><stop offset="81.99999928474426%" stop-color="#B2A291" stop-opacity="0.7900000214576721"/><stop offset="87.99999952316284%" stop-color="#979DA1" stop-opacity="0.7099999785423279"/><stop offset="93.99999976158142%" stop-color="#7898B4" stop-opacity="0.6100000143051147"/><stop offset="99.00000095367432%" stop-color="#5792C9" stop-opacity="0.5099999904632568"/><stop offset="99.00000095367432%" stop-color="#5392CC" stop-opacity="0.5"/></linearGradient><linearGradient x1="0.5000056028366089" y1="-0.000029915936465840787" x2="0.5000056028366089" y2="0.9999401569366455" id="master_svg10_9_1228"><stop offset="0%" stop-color="#E78139" stop-opacity="1"/><stop offset="14.000000059604645%" stop-color="#E1823E" stop-opacity="1"/><stop offset="31.999999284744263%" stop-color="#D1854F" stop-opacity="1"/><stop offset="51.99999809265137%" stop-color="#B88A6B" stop-opacity="1"/><stop offset="75%" stop-color="#949292" stop-opacity="1"/><stop offset="99.00000095367432%" stop-color="#679BC3" stop-opacity="1"/><stop offset="100%" stop-color="#649CC7" stop-opacity="1"/></linearGradient></defs><g clip-path="url(#master_svg0_9_0900)"><g><g><g><g><path d="M367.6132275390625,693.1152442993164L52.2225275390625,693.1152442993164L33.1832275390625,668.2138442993164L389.9642275390625,668.2138442993164L367.6132275390625,693.1152442993164Z" fill="url(#master_svg1_9_1189)" fill-opacity="1"/></g><g><path d="M358.587966796875,696.381765979004L59.070366796875,696.381765979004L40.990966796875,673.9285659790039L379.814966796875,673.9285659790039L358.587966796875,696.381765979004Z" fill="url(#master_svg2_9_1190)" fill-opacity="1"/></g><g><rect x="46.844970703125" y="678.4191970825195" width="323.9889221191406" height="54.69919967651367" rx="0" fill="url(#master_svg3_9_1191)" fill-opacity="1"/></g><g><rect x="33.7713623046875" y="660.4600296020508" width="356.5818176269531" height="7.7267351150512695" rx="0" fill="url(#master_svg4_9_1192)" fill-opacity="1"/></g><g><rect x="44.502685546875" y="653.1120376586914" width="331.7966003417969" height="7.348006725311279" rx="0" fill="url(#master_svg5_9_1193)" fill-opacity="1"/></g></g><g><g><path d="M367.6132275390625,756.6807738647461L52.2225275390625,756.6807738647461L33.1832275390625,740.0572738647461L389.9642275390625,740.0572738647461L367.6132275390625,756.6807738647461Z" fill="url(#master_svg6_9_1194)" fill-opacity="1"/></g><g><rect x="33.5753173828125" y="732.3001022338867" width="356.7812194824219" height="7.348006725311279" rx="0" fill="url(#master_svg7_9_1195)" fill-opacity="1"/></g></g><g><g><g><path d="M37.431884765625,748.2201689086914L37.431884765625,744.6628189086914L76.83198476562501,744.6628189086914L76.83198476562501,748.2201689086914" fill="url(#master_svg8_9_1196)" fill-opacity="1"/></g><g><path d="M37.431884765625,748.2201614379883L76.83198476562501,748.2201614379883L75.040584765625,753.9315114379883L42.505194765625,752.2373914379883L37.431884765625,748.2201614379883Z" fill="url(#master_svg9_9_1197)" fill-opacity="1"/></g><g><path d="M42.0589599609375,753.718519934082L42.0589599609375,750.583869934082L74.8918599609375,750.583869934082L74.8918599609375,753.718519934082" fill="url(#master_svga_9_1198)" fill-opacity="1"/></g><g><path d="M42.0589599609375,753.931526184082L74.8918599609375,753.931526184082L72.3534599609375,760.697916184082L47.280989960937504,760.697916184082L42.0589599609375,753.931526184082Z" fill="url(#master_svgb_9_1199)" fill-opacity="1"/></g><g><rect x="47.8792724609375" y="759.0071487426758" width="24.474252700805664" height="146.77413940429688" rx="0" fill="url(#master_svgc_9_1200)" fill-opacity="1"/></g></g><g><rect x="43.498779296875" y="872.3653030395508" width="33.31621170043945" height="35.742488861083984" rx="0" fill="#EDAB4C" fill-opacity="1"/></g></g><g><g><g><path d="M120.46041870117188,748.2201689086914L120.46041870117188,744.6628189086914L159.86051870117188,744.6628189086914L159.86051870117188,748.2201689086914" fill="url(#master_svgd_9_1202)" fill-opacity="1"/></g><g><path d="M120.63278198242188,748.2201614379883L159.98558198242188,748.2201614379883L157.41678198242187,753.9315114379883L123.53954198242188,753.9315114379883L120.63278198242188,748.2201614379883Z" fill="url(#master_svge_9_1203)" fill-opacity="1"/></g><g><path d="M124.73947143554688,754.5638783911132L124.73947143554688,751.0065383911133L156.80177143554687,751.0065383911133L156.80177143554687,754.5638783911132" fill="url(#master_svgf_9_1204)" fill-opacity="1"/></g><g><path d="M124.87789916992188,754.563850402832L156.90299916992188,754.563850402832L154.81419916992186,760.275210402832L127.24386916992188,760.275210402832L124.87789916992188,754.563850402832Z" fill="url(#master_svgg_9_1205)" fill-opacity="1"/></g><g><rect x="128.17001342773438" y="759.0071487426758" width="24.474252700805664" height="144.66070556640625" rx="0" fill="url(#master_svgh_9_1206)" fill-opacity="1"/></g></g><g><rect x="123.59030151367188" y="872.3653030395508" width="33.57984924316406" height="35.742488861083984" rx="0" fill="url(#master_svgi_9_1207)" fill-opacity="1"/></g></g><g><g><g><path d="M265.619384765625,748.2201689086914L265.619384765625,744.6628189086914L305.019484765625,744.6628189086914L305.019484765625,748.2201689086914" fill="url(#master_svgj_9_1208)" fill-opacity="1"/></g><g><path d="M265.791748046875,748.2201614379883L305.144548046875,748.2201614379883L302.575748046875,753.9315114379883L268.701888046875,753.9315114379883L265.791748046875,748.2201614379883Z" fill="url(#master_svgk_9_1209)" fill-opacity="1"/></g><g><path d="M269.8983154296875,754.5638783911132L269.8983154296875,751.0065383911133L301.9639154296875,751.0065383911133L301.9639154296875,754.5638783911132" fill="#C1713A" fill-opacity="1"/></g><g><path d="M270.036865234375,754.563850402832L302.065365234375,754.563850402832L299.976465234375,760.275210402832L272.402835234375,760.275210402832L270.036865234375,754.563850402832Z" fill="#C1713A" fill-opacity="1"/></g><g><rect x="273.3289794921875" y="759.0071487426758" width="24.474252700805664" height="144.66070556640625" rx="0" fill="url(#master_svgl_9_1211)" fill-opacity="1"/></g></g><g><rect x="269.611083984375" y="872.3653030395508" width="32.717960357666016" height="35.742488861083984" rx="0" fill="#EDAB4C" fill-opacity="1"/></g></g><g><g><g><path d="M384.286086328125,748.2201689086914L384.286086328125,744.6628189086914L344.885986328125,744.6628189086914L344.885986328125,748.2201689086914" fill="url(#master_svgm_9_1212)" fill-opacity="1"/></g><g><path d="M384.286086328125,748.2201614379883L344.885986328125,748.2201614379883L346.677336328125,753.9315114379883L379.212786328125,752.2373914379883L384.286086328125,748.2201614379883Z" fill="url(#master_svgn_9_1213)" fill-opacity="1"/></g><g><path d="M379.659071875,753.718519934082L379.659071875,750.583869934082L346.826171875,750.583869934082L346.826171875,753.718519934082" fill="url(#master_svgo_9_1214)" fill-opacity="1"/></g><g><path d="M379.659071875,753.931526184082L346.826171875,753.931526184082L349.364521875,760.697916184082L374.436971875,760.697916184082L379.659071875,753.931526184082Z" fill="url(#master_svgp_9_1215)" fill-opacity="1"/></g><g transform="matrix(-1,-1.2246468525851679e-16,1.2246468525851679e-16,-1,747.6774902343749,1807.335708618164)"><rect x="373.8387451171875" y="903.667854309082" width="24.474252700805664" height="144.66070556640625" rx="0" fill="url(#master_svgq_9_1216)" fill-opacity="1"/></g></g><g><rect x="345.2510986328125" y="872.3653030395508" width="32.67401885986328" height="35.742488861083984" rx="0" fill="#EDAB4C" fill-opacity="1"/></g></g><g><g><rect x="116.50930786132812" y="687.4546127319336" width="32.839637756347656" height="32.85130310058594" rx="0" fill="url(#master_svgr_9_1217)" fill-opacity="1"/></g><g><rect x="170.72378540039062" y="687.4546127319336" width="32.839637756347656" height="32.85130310058594" rx="0" fill="url(#master_svgs_9_1218)" fill-opacity="1"/></g><g><rect x="224.93826293945312" y="687.4546127319336" width="32.839637756347656" height="32.85130310058594" rx="0" fill="url(#master_svgt_9_1219)" fill-opacity="1"/></g><g><rect x="279.1526184082031" y="687.4546127319336" width="32.839637756347656" height="32.85130310058594" rx="0" fill="url(#master_svgu_9_1220)" fill-opacity="1"/></g><g><g><g><path d="M239.4788112890625,697.0073773168946C239.4788112890625,696.0098273168945,239.4619212890625,695.0122873168946,239.4855812890625,694.0147373168945C239.4957312890625,693.5717653168946,239.4957312890625,693.0273430168945,240.1210112890625,693.0036700038945C240.8037712890625,692.9799970168946,240.9153012890625,693.5345683168945,240.9220612890625,694.0485573168945C240.9524912890625,695.9929173168945,240.9288312890625,697.9372873168945,240.9795212890625,699.8816473168945C241.0200712890625,701.4472873168945,241.5879012890625,701.9037873168945,243.0751212890625,701.3559873168946C244.5082212890625,700.8284673168945,246.1610212890625,700.6424873168945,247.1479212890625,699.2323973168945C247.3811212890625,698.9010173168946,247.8070212890625,698.9077673168945,248.0774212890625,699.2053473168945C248.6385212890625,699.8207773168946,248.9122212890625,700.5985273168945,248.8379212890625,701.4033273168945C248.7737212890625,702.1134373168945,248.0368212890625,702.0424273168945,247.5298212890625,702.1878373168945C245.4985212890625,702.7728373168945,243.4604212890625,703.3341373168945,241.4324412890625,703.9259373168945C240.6280112890625,704.1592373168945,240.1345312890625,704.6631373168946,240.1751112890625,705.5625373168946C240.2190512890625,706.5736373168945,239.9385012890625,707.5339373168945,239.6883912890625,708.5044373168945C238.9211312890625,711.5005373168946,238.0423512890625,711.8826373168945,234.8821112890625,712.3289373168946C234.3616012890625,712.4033373168945,233.6450522890625,712.5149373168945,233.4388592890625,711.8589373168945C233.2191542890625,711.1657373168945,233.9357012890625,710.9019373168945,234.4021412890625,710.7261373168946C236.8661212890625,709.8063373168945,237.8665912890625,707.8349373168945,238.4479312890625,705.5050373168946C238.7115812890625,704.4534373168946,238.4479312890625,703.8042373168945,237.2818412890625,703.8075373168946C235.76425128906249,703.8075373168946,234.8989812890625,702.3028073168946,233.3982812890625,702.2588473168945C233.0940772890625,702.2520773168945,232.6918612890625,701.9409773168945,232.9487414890625,701.5047673168946C233.1414012890625,701.1733873168945,233.4422222890625,701.3593673168946,233.7396602890625,701.4641973168946C235.3417512890625,702.0322873168946,236.9945612890625,701.6265073168945,238.6169312890625,701.6028373168946C239.3301012890625,701.5926873168945,239.3503712890625,700.7270273168946,239.3808012890625,700.1521773168945C239.4348712890625,699.1072873168945,239.3943212890625,698.0590173168945,239.3943212890625,697.0107573168946C239.4213612890625,697.0107573168946,239.4483912890625,697.0107573168946,239.4720512890625,697.0107573168946L239.4788112890625,697.0073773168946Z" fill="#F7B41E" fill-opacity="1"/></g><g><path d="M243.913330078125,707.2499465942383C246.302960078125,708.3455465942383,248.185600078125,709.4682165942382,248.881870078125,711.8420265942383C249.040720078125,712.3864365942383,249.125210078125,712.9071965942383,248.665550078125,713.3670865942382C248.107840078125,713.9284165942382,247.644790078125,713.4347165942382,247.174990078125,713.2318265942383C246.150860078125,712.7888465942383,245.512060078125,712.0280165942382,245.197730078125,710.9459265942382C244.869884078125,709.8165065942383,244.430473078125,708.7175165942383,243.913330078125,707.2499465942383Z" fill="#F7B41E" fill-opacity="1"/></g></g><g><g><path d="M124.29670955859375,713.0052335815429C126.44298255859376,711.284033581543,128.34927255859375,709.7353335815429,129.99193255859376,707.909333581543C130.34345255859375,707.520433581543,130.98226255859376,707.1180335815429,130.61723255859374,706.533033581543C130.32993255859375,706.069733581543,129.68774255859375,706.3504335815429,129.20441255859376,706.387633581543C128.80558255859376,706.4214335815429,128.41012255859374,706.526233581543,128.01467255859376,706.6108335815429C126.73705255859375,706.881333581543,125.81770255859375,706.691933581543,125.70954255859375,705.126333581543C125.65207255859374,704.318133581543,125.24648255859375,703.6080335815429,124.63133255859375,703.0365335815429C124.31023255859375,702.739033581543,123.84718055859375,702.424533581543,124.20545455859374,701.913933581543C124.55358955859376,701.420233581543,125.13832255859376,701.4269335815429,125.56757255859375,701.714433581543C126.88575255859375,702.5935335815429,128.29182255859374,702.204733581543,129.67760255859375,702.0931335815429C130.13051255859375,702.055933581543,130.59019255859374,701.957833581543,130.91128255859374,701.5926335815429C131.12422255859374,701.349233581543,131.15802255859376,701.044833581543,131.05662255859374,700.747233581543C130.91128255859374,700.3246335815429,130.60370255859374,700.507233581543,130.31302255859376,700.557933581543C129.31256255859375,700.7371335815429,128.30871255859375,700.828433581543,127.30148255859375,700.615433581543C126.88913255859374,700.5275335815429,126.50043255859374,700.297533581543,126.46325255859375,699.854563581543C126.41592255859375,699.279713581543,126.95672255859375,699.306763581543,127.32176255859375,699.242513581543C128.26477255859376,699.076813581543,129.21791255859375,698.9449435815429,130.16769255859376,698.816443581543C130.73552255859374,698.738673581543,131.12084255859375,698.5222535815429,131.11070255859374,697.879763581543C131.09717255859374,697.173033581543,130.66454255859375,697.0851135815429,130.08657255859376,697.142603581543C129.78575255859374,697.173033581543,129.47480255859375,697.1865635815429,129.18075255859375,697.142603581543C128.47434255859375,697.034393581543,127.57527255859375,696.892363581543,127.59893255859375,696.0672835815429C127.62259255859375,695.272633581543,128.54870255859376,695.5431535815429,129.09287255859374,695.4721435815429C131.16140255859375,695.198243581543,131.86444255859374,693.9572335815429,130.89101255859376,692.1346035815429C130.61048255859376,691.607083581543,130.05278255859375,691.0897135815429,130.57330255859375,690.531766581543C131.07015255859375,690.000867981543,131.88472255859375,690.011017181543,132.56409255859376,690.082025881543C133.29078255859375,690.159798581543,133.92283255859374,690.5993955815429,134.04451255859374,691.383903581543C134.14252255859375,692.016243581543,134.08172255859375,692.675643581543,134.10532255859374,693.321503581543C134.11892255859374,693.7171435815429,133.99043255859374,694.298763581543,134.20342255859376,694.477983581543C135.35252255859376,695.451853581543,135.67032255859374,696.1754935815429,134.21692255859375,697.281243581543C133.59499255859376,697.7546535815429,134.54472255859375,698.0015035815429,135.00102255859375,697.950783581543C136.30232255859374,697.798613581543,137.59682255859374,697.558523581543,138.89472255859374,697.379303581543C139.79382255859375,697.254193581543,140.72332255859374,697.0513035815429,141.21002255859375,698.187483581543C141.70692255859376,699.343953581543,141.38582255859376,700.3246335815429,140.41232255859376,700.9468335815429C138.14442255859376,702.3907335815429,136.38012255859374,704.409433581543,134.24392255859374,705.988633581543C133.13193255859375,706.8069335815429,132.54044255859375,707.760533581543,132.61480255859374,709.143533581543C132.69930255859376,710.7294335815429,132.49650255859376,712.322133581543,132.94266255859375,713.8979335815429C133.13869255859376,714.5877335815429,133.21305255859374,715.3925335815429,132.36469255859376,715.8862335815429C131.52308255859376,716.373233581543,130.93835255859375,715.9065335815429,130.31644255859376,715.4568335815429C129.82634255859375,715.105133581543,129.29907255859376,714.807533581543,128.80560255859376,714.462633581543C128.54872255859374,714.283433581543,128.35268255859376,714.009533581543,128.45408255859374,713.6950335815429C128.56561255859376,713.350133581543,128.91037255859374,713.377233581543,129.21795255859374,713.356933581543C131.17156255859376,713.2149335815429,131.34056255859375,712.971433581543,131.14790255859376,711.064233581543C131.04312255859375,710.0193335815429,130.66119255859374,710.174933581543,130.03928255859375,710.668633581543C128.97797255859376,711.510633581543,127.91667255859375,712.369533581543,126.64243255859375,712.8970335815429C125.99686255859375,713.164133581543,125.32086255859375,713.306133581543,124.31026355859375,712.995133581543L124.29670955859375,713.0052335815429ZM137.28252255859374,699.337203581543C136.38002255859374,699.421733581543,135.47422255859374,699.492753581543,134.57512255859376,699.590813581543C133.95324255859376,699.661823581543,133.30091255859375,699.780173581543,133.36175255859376,700.601833581543C133.41921255859376,701.3897335815429,134.05463255859374,701.1226335815429,134.52442255859376,701.126033581543C135.02472255859374,701.132733581543,135.45392255859375,701.268033581543,135.44722255859375,701.856433581543C135.43702255859375,702.4042335815429,135.08552255859374,702.6375335815429,134.54812255859375,702.630833581543C134.34532255859375,702.630833581543,134.14592255859375,702.630833581543,133.94310255859375,702.6443335815429C133.59497255859375,702.671333581543,133.36175255859376,702.8472335815429,133.40569255859376,703.212433581543C133.43272255859375,703.438933581543,133.49694255859376,703.723033581543,133.65243255859374,703.861633581543C133.86198255859375,704.047633581543,134.13242255859376,703.878533581543,134.32842255859376,703.723033581543C135.58572255859374,702.7254335815429,136.84982255859376,701.734733581543,137.85032255859375,700.470033581543C138.05992255859374,700.202833581543,138.28632255859375,699.881623581543,138.09712255859375,699.523183581543C137.92472255859374,699.198563581543,137.58332255859375,699.283093581543,137.28592255859374,699.333823581543L137.28252255859374,699.337203581543ZM129.79252255859376,703.344233581543C128.90359255859374,703.374733581543,127.86932255859375,703.1244335815429,127.80849255859376,704.389133581543C127.76454255859375,705.308933581543,128.57911255859375,705.170333581543,129.12666255859375,705.126333581543C129.89391255859374,705.065433581543,130.98226255859376,705.440833581543,131.09042255859376,704.1321335815429C131.18506255859376,703.0129335815429,130.28599255859376,703.4355335815429,129.79252255859376,703.3409335815429L129.79252255859376,703.344233581543Z" fill="#F7B41E" fill-opacity="1"/></g><g><path d="M141.08148693359374,711.8825920776367C141.05445693359374,712.4473120776368,140.85165693359374,712.9545320776367,140.52379693359376,713.4008820776368C139.92892693359374,714.2090720776367,138.99606693359374,714.1786220776368,138.84395693359374,713.2419520776367C138.58707693359375,711.6560320776367,137.41761693359376,711.2164420776368,136.24815693359375,710.6584820776367C135.93044693359374,710.5063120776367,135.62624893359376,710.3304720776367,135.33219393359374,710.1411120776368C135.08545393359375,709.9787960776367,134.79816593359374,709.8029610776367,134.95364083359374,709.4343790776367C135.07194093359374,709.1537184076367,135.34909993359375,709.1368046776367,135.59582993359376,709.1773810776367C137.23848693359375,709.4445230776367,138.82030693359374,709.9416040776367,140.37170693359374,710.5232220776368C140.95981693359374,710.7430220776367,141.11867693359375,711.2874420776367,141.08487693359376,711.8792120776367L141.08148693359374,711.8825920776367Z" fill="#F7B41E" fill-opacity="1"/></g></g><g><g><path d="M186.91033576171876,703.9765912231445C187.73504576171874,704.1186912231445,188.13725576171876,703.3679912231445,188.79973576171875,703.3510912231445C189.16139576171875,703.3408912231446,189.56699576171874,703.3104912231445,189.67177576171875,703.7398912231446C189.76303576171875,704.1186912231445,189.39122576171874,704.2166912231445,189.11745576171876,704.3147912231445C188.59694576171876,704.4973912231445,188.05952576171876,704.6495912231445,187.53902576171876,704.8321912231445C186.92386576171876,705.0485912231445,186.88669576171876,705.5625912231445,186.99147576171876,706.0663912231445C187.10639576171874,706.6243912231446,187.49846576171876,706.3605912231445,187.82294576171876,706.2658912231445C188.16770576171876,706.1644912231445,188.57666576171874,706.0562912231445,188.72877576171874,706.4924912231445C188.88761576171876,706.9523912231446,188.56654576171874,707.3411912231445,188.15417576171876,707.3750912231445C186.69403576171874,707.4899912231446,186.87992576171874,708.5078912231445,186.91373576171875,709.4444912231445C186.96780576171875,710.9154912231445,186.54195576171875,712.1936912231446,185.44346576171876,713.2182912231445C185.09870576171875,713.5394912231445,184.68297576171875,713.8438912231445,184.24020576171876,713.5056912231445C183.67237576171874,713.0728912231446,184.21315576171875,712.7651912231445,184.45314576171876,712.4100912231445C184.69987576171874,712.0414912231445,184.90268576171874,711.6356912231445,185.05814576171875,711.2197912231445C185.86934576171876,709.0589912231445,185.69019576171874,708.8087912231446,183.42562576171875,708.8628912231445C183.17550576171874,708.8696912231445,182.91862576171874,708.8628912231445,182.67528576171875,708.8189912231445C182.55699576171875,708.7952912231445,182.45896576171876,708.6633912231446,182.27645576171875,708.5247912231446C182.90511576171875,707.8450912231445,183.76363576171875,707.8788912231445,184.48693576171874,707.6556912231446C185.18996576171875,707.4392912231446,185.60569576171875,707.0977912231446,185.35896576171876,706.3876912231445C185.06829576171876,705.5523912231446,184.50721576171875,706.1745912231445,184.16247576171875,706.3402912231445C182.93216576171875,706.9320912231445,182.35082576171874,706.6615912231446,182.40489576171876,705.2581912231445C182.42178576171875,704.7982912231446,182.27645576171875,704.3519912231445,181.84044476171874,704.0983912231445C180.74195876171876,703.4625912231445,180.93461916171876,702.8505912231445,181.79650376171875,702.1539912231445C183.11469576171876,701.0922112231445,183.60815576171876,699.5299612231445,184.10501576171876,698.0319512231446C184.54440576171876,696.7030212231446,184.00023576171876,696.1619812231445,182.59755576171875,696.2668012231445C182.34743576171874,696.2837112231446,182.09732576171876,696.3783912231445,181.85057376171875,696.3581012231446C181.37062576171874,696.3209112231445,180.88391156171875,696.1349212231445,180.89742394671876,695.6006412231445C180.91093636171874,695.0291712231445,181.46525376171874,695.1678112231446,181.84042376171874,695.1475212231445C182.19193576171875,695.1306212231445,182.54684576171874,695.1542912231446,182.89835576171876,695.1914912231446C184.19626576171876,695.3368912231446,184.91281576171875,694.9683112231445,184.70325576171874,693.4872112231445C184.63565576171874,693.0036592231445,184.38215576171876,692.0500727231446,185.33530576171876,692.1447544431445C186.07213576171876,692.2191479231445,186.93740576171876,692.5911152231446,186.58927576171874,693.7475912231446C186.21410576171874,695.0021312231445,186.92727576171876,694.8837712231445,187.82296576171876,694.7045512231446C188.45839576171875,694.5794412231445,189.37099576171875,693.5514612231445,189.72250576171876,694.5997312231445C190.03683576171875,695.5364112231446,188.83018576171875,695.8001612231445,188.06969576171875,695.9219012231446C186.52843576171875,696.1687512231446,185.72739576171875,696.9498712231446,185.33868576171875,698.4715512231445C184.97364576171876,699.9019212231445,184.24696576171874,701.2410012231445,183.67237576171874,702.6375912231446C184.39907576171876,703.2766912231446,184.86886576171875,702.1134312231445,185.60233576171876,702.3602912231445C185.60233576171876,703.3273912231446,184.50384576171874,703.6147912231445,184.30106576171875,704.4297912231445C185.73077576171875,704.2302912231445,187.01517576171875,702.7085912231445,186.67379576171874,701.3897812231445C186.41353576171875,700.3753312231445,186.90701576171875,700.0811412231445,187.67426576171874,699.9729312231445C189.92194576171875,699.6516912231446,192.17635576171875,699.3879312231445,194.42745576171876,699.1038812231445C195.38735576171874,698.9821512231446,195.72535576171876,699.5367112231445,195.98215576171876,700.3550412231446C196.82715576171876,703.0365912231446,195.75235576171875,705.4678912231445,195.03245576171875,707.9329912231445C194.71465576171875,709.0251912231445,194.24145576171875,710.0903912231445,193.71085576171876,711.1048912231445C192.99435576171874,712.4776912231446,192.14595576171874,712.6264912231445,190.91905576171874,711.7134912231445C190.59791576171875,711.4733912231445,190.28020576171875,711.2163912231446,190.01319576171875,710.9221912231445C189.69209576171875,710.5671912231445,189.04991576171875,710.2526912231446,189.27636576171875,709.7352912231445C189.51971576171874,709.1739912231445,190.18557576171875,709.4850912231445,190.64862576171876,709.5357912231445C191.90595576171876,709.6778912231446,192.64955576171874,709.1502912231446,193.07885576171876,708.0073912231445C193.74805576171875,706.2185912231446,194.17395576171876,704.3891912231445,194.35645576171876,702.4887912231445C194.47135576171874,701.2815712231445,194.18745576171875,700.5545512231446,192.75775576171876,700.6695212231446C191.85525576171875,700.7439112231446,190.93935576171876,700.6526112231445,190.03687576171876,700.7033312231446C189.16145576171874,700.7506712231445,188.31985576171874,700.8318312231445,188.35028576171874,702.0897512231445C188.37055576171875,702.9756912231445,186.97125576171874,702.9147912231446,186.91379576171875,703.9664912231445L186.91033576171876,703.9765912231445Z" fill="#F7B41E" fill-opacity="1"/></g><g><path d="M179.65691478515626,705.7147326098633C179.51834478515624,706.5770126098632,179.68396478515626,707.4359126098633,180.02534478515625,708.2812926098633C180.26868478515624,708.8798126098633,180.23828478515625,709.5865426098633,179.69073478515625,709.9010326098633C178.96741478515625,710.3169626098633,178.87953478515624,709.4276226098633,178.53479078515625,709.0860926098633C177.72359368515626,708.2745326098633,177.47348078515626,707.3378426098633,177.86556678515626,706.2321026098633C178.15623778515624,705.4103926098633,177.82839178515624,704.5616326098633,177.89935778515624,703.7264036098633C177.93314878515625,703.3375326098633,177.94329878515626,702.8674996098633,178.42324678515624,702.7559141098633C178.98431478515624,702.6240306098633,179.21078478515625,703.0771606098633,179.40005478515624,703.4829356098633C179.72454478515624,704.1795226098633,179.70762478515624,704.9234626098632,179.65691478515626,705.7147326098633Z" fill="#F7B41E" fill-opacity="1"/></g></g><g><g><path d="M296.07273638671876,696.1383399829101C297.08333638671877,694.6301799829101,298.1750563867187,693.6495499829101,299.72984638671875,693.3147799829102C301.43334638671877,692.9461999829101,302.48454638671876,693.7408499829102,302.27834638671874,695.4417399829101C302.07894638671877,697.0648599829102,301.68684638671874,698.6744599829102,301.24744638671876,700.2536199829102C300.8891463867187,701.5453199829102,301.41644638671875,701.8023199829101,302.52164638671877,701.5521199829102C303.28554638671875,701.3796199829102,304.02914638671876,701.4168199829102,304.7693463867187,701.6197199829102C305.9523463867188,701.9444199829102,306.17544638671876,702.6071199829101,305.2290463867188,703.3950199829102C303.92104638671873,704.4805199829102,302.50814638671875,705.4510199829101,300.80134638671876,705.8737199829102C300.56474638671875,705.9311199829101,300.32134638671874,705.9751199829102,300.08134638671874,706.0224199829102C300.59174638671874,707.8079199829101,298.4860463867187,707.9769199829102,298.05002638671874,709.2078199829101C297.83708638671874,709.8063199829102,297.7931463867188,709.9551199829101,298.3305663867188,710.5570199829101C299.43244638671877,711.7913199829102,300.64584638671874,711.9401199829101,302.08904638671873,711.9435199829102C302.43724638671875,711.9435199829102,302.83604638671875,712.2512199829101,303.11654638671877,712.5149199829102C303.52894638671876,712.9072199829102,304.19814638671875,713.3806199829102,303.76554638671877,713.9859199829101C303.31594638671874,714.6182199829102,302.79544638671877,713.9960199829102,302.33914638671877,713.7390199829101C301.55164638671874,713.2961199829101,300.67284638671873,713.4009199829102,299.82114638671874,713.3637199829102C299.16878638671875,713.3366199829102,299.2161463867188,713.8709199829102,299.07751638671874,714.2902199829101C298.5096863867187,716.0114199829102,297.5227463867187,717.3031199829102,295.54207638671875,717.5365199829101C294.1765863867187,717.6954199829102,293.30455638671873,717.1544199829102,292.95978638671875,715.8153199829102C292.5339163867188,714.1583199829101,293.05780638671877,712.7516199829101,294.34894638671875,712.2850199829102C294.8153863867187,712.1159199829101,295.33588638671876,712.0956199829102,295.8192163867187,711.9637199829101C296.14370638671875,711.8758199829101,296.71491638671876,711.6526199829102,296.41070638671874,711.3280199829102C295.32573638671875,710.1783199829101,296.2450963867187,709.4682199829101,296.84335638671877,708.6465199829101C296.95151638671877,708.4977199829102,296.96164638671877,708.2813199829102,297.01573638671874,708.1021199829102C296.48169638671874,707.7470199829102,296.0085163867187,707.9939199829101,295.53193638671877,708.1122199829101C295.1263363867188,708.2137199829101,294.6396163867187,708.2914199829102,294.47400638671877,707.8417199829101C294.3083863867187,707.3953199829101,294.7477763867187,707.1383199829102,295.09928638671875,706.9524199829102C296.10312638671877,706.4215199829101,297.00220638671874,705.6674199829101,298.32039638671876,705.9717199829101C299.07073638671875,706.1442199829102,302.4405463867188,703.7366199829102,302.69064638671875,703.0163199829102C302.73464638671874,702.8946199829102,302.73804638671874,702.6477199829102,302.68724638671875,702.6240199829101C302.5182463867188,702.5530199829102,302.28844638671876,702.4854199829101,302.12954638671874,702.5429199829101C301.37584638671876,702.8235199829102,300.65254638671877,703.2023199829101,299.88524638671873,703.4356199829101C299.29384638671877,703.6148199829101,298.56373638671874,704.3689199829101,298.16826638671876,703.0028199829102C297.99927638671875,702.4245199829102,297.22527638671875,703.0433199829101,296.74193638671875,703.2057199829102C294.79846638671876,703.8651199829102,292.82794638671874,704.2945199829102,290.76618638671874,703.8955199829102C290.10034238671875,703.7670199829101,289.89753238671875,703.2327199829101,289.8907663867187,702.6545199829102C289.8671033867187,701.0516199829102,289.66769838671877,699.4792599829102,289.26209948671874,697.9271499829101C289.15393848671874,697.5112299829102,289.04239438671874,696.9397499829101,289.5831993867188,696.7436299829102C290.12736738671873,696.5474999829102,290.34707638671875,697.0952999829102,290.60056638671875,697.4469799829102C290.99601638671874,697.9913999829101,291.10417638671873,698.6372699829102,291.1650163867188,699.2865199829101C291.26302638671876,700.3280199829102,291.33401638671876,701.3729199829102,291.43540638671874,702.4144199829102C291.46583638671876,702.7255199829101,291.6077863867188,703.0231199829102,291.98295638671874,702.9994199829101C292.3412363867188,702.9757199829102,292.50684638671873,702.6781199829102,292.4764363867188,702.3637199829102C292.41560638671876,701.7719199829102,292.32771638671875,701.1801199829101,292.18238638671875,700.6053199829101C291.81395638671876,699.1444999829101,291.60104638671874,697.6701599829101,291.75312638671875,696.1687799829101C291.8071963867188,695.6243599829102,291.95591638671874,694.9852499829102,292.6893763867188,695.0224499829102C293.4262063867188,695.0596399829102,293.25720638671874,695.7460899829101,293.3079163867188,696.1924499829101C293.49042638671875,697.8257199829102,293.61548638671877,699.4657499829102,293.7844763867187,701.1024199829102C293.83180638671877,701.5724199829101,293.69998638671876,702.1270199829102,294.26104638671876,702.4347199829101C294.89985638671874,702.1506199829101,294.66664638671875,701.5792199829101,294.68353638671874,701.1227199829102C294.80182638671874,698.1029999829102,294.88296638671875,695.0833199829102,294.99448638671873,692.0670199829102C295.05870638671877,690.3323049829102,295.13982638671877,690.2951079829102,296.63375638671874,691.1506279829101C297.1948263867188,691.4718699829101,297.55986638671874,690.9409759829101,298.01953638671876,690.8158569829102C298.4927363867188,690.6839788829102,299.05717638671877,690.3525929829102,299.35464638671874,690.9714089829101C299.68584638671877,691.6646199829102,299.11801638671875,691.9249999829102,298.56708638671876,692.1380299829102C298.23923638671874,692.2665299829101,297.93503638671876,692.4491199829101,297.61054638671874,692.5877699829101C295.78874638671874,693.3824199829102,295.6400263867188,693.6833799829102,296.0794163867188,696.1315799829101L296.07273638671876,696.1383399829101ZM296.90421638671876,714.3815199829102C297.00898638671873,713.6511199829101,296.68114638671875,713.2284199829102,295.81587638671874,713.3299199829102C294.75456638671875,713.4550199829101,293.78451638671874,713.7965199829101,293.76085638671873,715.0375199829101C293.74396638671874,715.8762199829101,294.1630763867187,716.5964199829101,295.15678638671875,716.6539199829101C296.1031663867187,716.7080199829102,296.89746638671875,715.6733199829101,296.90421638671876,714.3781199829101L296.90421638671876,714.3815199829102ZM300.66614638671876,695.9827799829102C300.74044638671876,695.0765399829102,300.40584638671874,694.5084499829102,299.6047463867188,694.5794599829102C298.6617963867188,694.6639999829101,297.6139963867187,694.9311399829102,297.35375638671877,695.9489699829102C297.28614638671877,696.2127299829101,297.45176638671876,697.5653299829102,298.40829638671875,697.3759699829102C299.29044638671877,697.2035099829102,300.74384638671876,697.5146099829102,300.66614638671876,695.9827799829102ZM295.62321638671875,700.9942199829102C296.58313638671876,700.1352699829101,296.63043638671877,699.2324099829102,296.58313638671876,698.2957399829102C296.55947638671876,697.8087999829102,296.24513638671874,697.5653299829102,295.80574638671874,697.5889999829102C295.36297638671874,697.6092899829101,295.49141638671875,698.0252099829102,295.50154638671876,698.2788299829101C295.53533638671877,699.1005299829102,295.2953763867188,699.9289999829101,295.62321638671875,700.9942199829102ZM297.98241638671874,698.7792899829102C297.55992638671876,699.9256199829101,297.64442638671875,700.6966199829102,297.70525638671876,701.4642199829102C297.73230638671873,701.8091199829101,297.9621363867187,701.9748199829102,298.31026638671875,701.9680199829102C298.7090963867187,701.9613199829101,299.1113163867187,701.9613199829101,299.41894638671874,701.6502199829101C299.5845463867187,701.4811199829102,299.57104638671876,701.1801199829101,299.41214638671875,701.1463199829102C298.30349638671873,700.9096199829102,298.46913638671873,699.8512199829102,297.98241638671874,698.7792899829102ZM299.77374638671876,700.2299499829102C300.2942463867187,699.4420599829101,300.64584638671874,698.9043999829101,300.5714463867188,698.2280999829102C300.55114638671876,698.0522599829102,300.26724638671874,697.9880099829102,300.0610463867188,698.1063699829101C299.2566463867187,698.5730199829102,299.4695463867188,699.2357899829102,299.77374638671876,700.2299499829102Z" fill="#F7B41E" fill-opacity="1"/></g><g><path d="M288.04870751953126,705.390114230957C287.79859751953126,706.462054230957,287.77493751953125,707.784214230957,286.3553475195313,708.3556842309571C285.9835675195313,708.504474230957,285.5678155195312,708.6803042309571,285.21969051953124,708.375974230957C284.87492851953124,708.075014230957,284.92901941953124,707.608374230957,285.0811215195312,707.260084230957C285.59826451953126,706.090084230957,286.31481751953123,705.0215242309571,286.71702751953126,703.783897230957C286.89953751953124,703.222566230957,287.42006751953124,703.340921330957,287.7377775195313,703.831243230957C288.0217075195313,704.267460230957,288.04872751953127,704.7645442309571,288.04872751953127,705.386734230957L288.04870751953126,705.390114230957Z" fill="#F7B41E" fill-opacity="1"/></g></g></g></g></g><g><g><path d="M217.40427455859376,617.0279479296875Q226.59775255859375,619.9969079296875,232.07667255859374,619.0230279296875C237.55557255859375,618.0457779296875,242.57817255859374,614.1401379296875,245.54577255859374,617.0719079296875L245.54577255859374,637.6347779296875Q240.41497255859375,633.9016779296875,231.37027255859374,637.5773779296875Q222.35589255859375,641.2394779296875,217.23187255859375,635.1358779296875" fill="url(#master_svgv_9_1222)" fill-opacity="1"/></g><g transform="matrix(0,-1,1,0,-435.2176208496094,871.1281433105469)"><line x1="217.95526123046875" y1="652.497113764286" x2="253.9310760498047" y2="652.497113764286" stroke="url(#master_svgw_9_1236)" fill-opacity="0" fill="none" stroke-width="1.3515366315841675"/></g></g><g><g><rect x="109.43161010742188" y="751.0809631347656" width="207.10333251953125" height="26.737545013427734" rx="0" fill="url(#master_svgx_9_1224)" fill-opacity="1"/></g><g><g><path d="M137.33988412109375,767.9850472753906C137.08638412109374,767.5048672753907,136.69769412109375,766.8826672753906,136.27181412109374,766.1759372753907C135.70060412109376,767.2884572753907,135.05841412109376,768.3434772753906,134.23370512109375,769.3478072753907L133.31097412109375,768.4381672753906C134.18638112109375,767.4203272753906,134.93673412109376,766.2841472753906,135.53160412109375,765.0025572753906C134.89955412109376,764.0455972753906,134.27088012109374,763.0987672753906,133.74699112109374,762.3920372753906L134.67986412109374,761.6988272753906C135.05503412109374,762.1790072753906,135.54174412109376,762.8958872753906,136.06226412109376,763.6634772753906C136.35293412109374,762.8012072753907,136.55911412109376,761.9050972753906,136.69431412109375,760.9447472753906L133.92612812109374,760.9447472753906L133.92612812109374,759.7950372753907L137.91785412109374,759.7950372753907L137.91785412109374,760.9447472753906C137.67449412109374,762.3446972753907,137.32297412109375,763.6499572753906,136.84978412109376,764.8605272753906C137.43114412109375,765.7600072753906,137.97869412109375,766.6087672753906,138.31668412109374,767.2174372753906L137.33311412109376,767.9850372753906L137.33988412109375,767.9850472753906ZM144.49867412109376,768.6545872753907L143.67387412109375,769.7197072753906C142.30165412109375,768.7154072753906,141.29442412109375,767.5183972753906,140.75025412109375,766.0677372753906C140.22974412109374,767.4440072753906,139.26983412109374,768.6309072753907,137.68126412109376,769.8280072753906L136.80585412109374,768.8101072753906C139.19548412109376,767.1836272753907,140.04723412109374,765.6619472753906,140.08103412109375,763.3625272753907C140.09455412109375,762.8721972753906,140.08103412109375,762.3818872753907,140.08103412109375,762.1046072753907L141.23359412109374,762.1519472753906C141.23359412109374,762.5002472753906,141.20993412109374,763.1799272753906,141.20993412109374,763.3726672753907C141.20993412109374,763.4808772753906,141.20993412109374,763.5755572753907,141.19641412109374,763.7074372753906C141.42624412109376,765.7532372753906,142.50783412109374,767.3222572753906,144.49867412109376,768.6511872753906L144.49867412109376,768.6545872753907ZM137.61704412109376,763.2779972753906C138.39442412109375,761.8780472753906,138.98930412109374,760.4307672753906,139.38813412109374,758.7062072753906L140.54070412109374,758.9226282753906C140.40550412109374,759.4366132753906,140.27368412109374,759.9167872753907,140.12834412109376,760.3834372753906L143.99837412109375,760.3834372753906L143.99837412109375,761.4959572753907L142.93033412109375,763.9137272753907L141.88592412109375,763.4842872753907L142.81879412109376,761.5703472753906L139.71262412109374,761.5703472753906C139.38476412109375,762.4191072753906,139.01973412109376,763.1630372753906,138.58371412109375,763.9272572753906L137.61367412109374,763.2813872753907L137.61704412109376,763.2779972753906Z" fill="#F4C676" fill-opacity="1"/></g><g><path d="M151.12330056640624,768.0425544628906C150.67377056640626,768.5463944628906,150.20057056640624,769.0232244628907,149.69020356640624,769.4898244628906L148.92633056640625,768.5328744628906C149.47388156640625,768.0527044628906,150.03157056640626,767.5285744628907,150.48111056640624,766.9165244628906L150.48111056640624,763.9103544628906L149.25418656640625,763.9103544628906L149.25418656640625,762.6997844628906L151.65733056640624,762.6997844628906L151.65733056640624,766.9131344628906C152.35022056640625,767.9411144628906,153.02959056640626,768.1575244628906,154.48635056640626,768.1947244628906C156.28110056640625,768.2319244628907,158.18740056640624,768.1947244628906,159.99563056640625,768.1101944628906L159.75233056640624,769.2599244628906C157.94404056640624,769.3444244628906,156.09858056640624,769.3782244628907,154.29031056640625,769.3444244628906C152.74905056640625,769.3072244628906,151.94800056640625,769.1415244628906,151.12329056640624,768.0391844628906L151.12330056640624,768.0425544628906ZM151.23146056640624,761.9761344628906C150.71095056640624,761.1611944628906,150.18706056640625,760.4307844628906,149.59218156640625,759.7139124628907L150.52505056640624,758.9463145628906C151.11993056640625,759.6293744628906,151.57960056640624,760.2380544628907,152.10350056640624,761.0157944628907L151.23147056640624,761.9727544628906L151.23146056640624,761.9761344628906ZM155.45640056640624,765.9595444628907C154.81422056640625,766.2469744628906,153.58729056640624,766.8218244628906,152.87074056640625,767.1701244628906L152.50571056640624,765.9967444628907C152.73555056640626,765.7701744628906,152.72541056640625,765.5774344628907,152.72541056640625,765.4827544628906L152.72541056640625,759.7139124628907C153.53998056640626,759.5211634628906,154.36469056640624,759.2100714628906,155.03054056640624,758.8888244628906L155.50373056640626,760.0622044628906C154.92238056640625,760.3361044628906,154.48299056640624,760.5288544628906,153.88811056640625,760.7080744628906L153.88811056640625,765.2933944628907L155.34487056640626,764.6001844628906L155.45303056640626,765.9663144628906L155.45640056640624,765.9595444628907ZM159.32643056640626,765.4455644628906C159.32643056640626,766.4498744628906,158.92763056640626,766.6426244628906,157.85956056640626,766.7744944628906L157.37284056640624,766.8353544628907L156.99767056640624,765.6247844628906L157.45734056640626,765.5639144628906C158.06573056640624,765.4692344628907,158.15023056640626,765.3948444628907,158.15023056640626,764.8943744628906L158.15023056640626,760.6911744628907L156.73064056640624,760.6911744628907L156.73064056640624,767.8971544628906L155.58822056640625,767.8971544628906L155.58822056640625,759.5414624628906L159.32643056640626,759.5414624628906L159.32643056640626,765.4421944628906L159.32643056640626,765.4455644628906Z" fill="#F4C676" fill-opacity="1"/></g><g><path d="M171.14613763671875,765.0161087207031C172.26151763671874,766.1759687207032,173.79264763671875,767.1227887207032,175.57387763671875,767.8768587207031L175.01617763671874,769.0739387207032C173.32957763671874,768.2961787207031,171.82549763671875,767.3392087207031,170.70672763671874,766.1894987207031L170.70672763671874,769.6386387207032L169.49331763671876,769.6386387207032L169.49331763671876,766.2740287207031C168.36440763671874,767.4237387207031,166.87384763671875,768.3435087207031,165.21091963671876,769.1483387207031L164.62957763671875,767.9140587207031C166.43784763671874,767.1464687207031,167.95545763671876,766.2131687207032,169.07084763671875,765.0161087207031L164.99461863671874,765.0161087207031L164.99461863671874,763.8900787207032L167.76279763671874,763.8900787207032C167.33692763671874,763.2678787207032,166.56291763671874,762.3109087207031,166.13704763671876,761.8679387207031L166.92457763671874,761.1848787207032L165.45767063671875,761.1848787207032L165.45767063671875,760.0486987207031L169.50010763671875,760.0486987207031L169.50010763671875,758.7434387207031L170.71351763671876,758.7907847207031L170.71351763671876,760.0487087207031L174.76607763671876,760.0487087207031L174.76607763671876,761.1848887207032L173.35664763671875,761.1848887207032L174.11036763671876,761.8206087207031C173.66082763671875,762.4563287207031,172.96793763671874,763.3050987207031,172.43728763671874,763.8900887207031L175.22917763671876,763.8900887207031L175.22917763671876,765.0161187207032L171.15290763671874,765.0161187207032L171.14613763671875,765.0161087207031ZM167.16456763671874,761.1848787207032C167.62423763671876,761.6751987207032,168.29347763671876,762.5374787207031,168.65849763671875,763.0514587207032L167.78307763671876,763.8900787207032L169.49333763671876,763.8900787207032L169.49333763671876,761.1848787207032L167.16456763671874,761.1848787207032ZM170.71013763671874,761.1848787207032L170.71013763671874,763.8900787207032L172.31222763671875,763.8900787207032L171.51117763671874,763.1359987207031C172.00802763671874,762.6220087207031,172.66373763671874,761.7969287207031,173.08961763671874,761.1848787207032L170.71013763671874,761.1848787207032Z" fill="#F4C676" fill-opacity="1"/></g><g><path d="M189.85750728515626,760.1196835839844L189.85750728515626,769.5641735839844L188.63057728515625,769.5641735839844L188.63057728515625,768.9521735839844L182.79339728515626,768.9521735839844L182.79339728515626,769.5980735839844L181.56646728515625,769.5980735839844L181.56646728515625,760.1163035839844L184.38197728515624,760.1163035839844C184.57463728515626,759.6259835839844,184.79431728515624,758.9902665839844,184.92952728515624,758.6216735839844L186.31193728515626,758.8245655839844C186.20377728515626,759.1965335839843,186.00773728515625,759.6969935839844,185.82522728515625,760.1163035839844L189.85411728515624,760.1163035839844L189.85750728515626,760.1196835839844ZM182.79679728515626,761.2693935839844L182.79679728515626,762.7166835839844L188.63398728515625,762.7166835839844L188.63398728515625,761.2693935839844L182.79679728515626,761.2693935839844ZM182.79679728515626,763.8427135839844L182.79679728515626,765.2426635839844L188.63398728515625,765.2426635839844L188.63398728515625,763.8427135839844L182.79679728515626,763.8427135839844ZM188.63396728515625,767.7923235839844L188.63396728515625,766.3923735839844L182.79677728515625,766.3923735839844L182.79677728515625,767.7923235839844L188.63396728515625,767.7923235839844Z" fill="#F4C676" fill-opacity="1"/></g><g><path d="M206.69994482421876,763.8292248144531L206.33484482421875,765.0871448144532C204.33394482421875,764.6915048144531,202.73185482421874,764.2147248144531,201.31226482421874,763.5316548144531C199.89268482421875,764.2147148144531,198.21623482421876,764.7895748144531,196.14432282421876,765.2562248144532L195.71844482421875,764.0219748144531C197.28336482421875,763.7480748144532,198.72661482421876,763.3287748144531,200.02788482421875,762.8114048144531C199.44654482421876,762.4394348144531,198.89897482421875,762.0099848144531,198.37846482421875,761.5298048144531C197.85796482421875,762.0201348144532,197.32392482421875,762.4867648144532,196.73919482421874,762.9196048144531L196.03616182421874,761.9727848144531C197.29687482421875,761.0733048144531,198.64547482421875,759.6632248144531,199.32485482421876,758.6081848144531L200.53826482421874,758.9902968144531C200.40305482421874,759.1931888144532,200.25772482421874,759.3859368144531,200.11238482421874,759.5888188144531L205.35469482421874,759.5888188144531L205.35469482421874,760.6539948144531C204.57731482421875,761.4689348144532,203.69176482421875,762.1993348144531,202.61356482421874,762.8316748144531C203.71881482421875,763.2509848144531,205.07753482421876,763.5722248144531,206.70334482421876,763.8258448144531L206.69994482421876,763.8292248144531ZM197.46587482421876,764.9789348144532L205.02683482421875,764.9789348144532L205.02683482421875,769.5743848144531L203.83708482421875,769.5743848144531L203.83708482421875,769.0231848144531L198.67926482421876,769.0231848144531L198.67926482421876,769.5743848144531L197.46585482421875,769.5743848144531L197.46587482421876,764.9789348144532ZM198.67928482421874,766.0576348144531L198.67928482421874,767.9850948144531L203.83710482421876,767.9850948144531L203.83710482421876,766.0576348144531L198.67928482421874,766.0576348144531ZM201.30213482421874,762.2500648144531C202.32288482421876,761.7360748144531,203.13406482421874,761.2220848144531,203.70527482421875,760.6573748144531L199.22683482421874,760.6573748144531Q199.21332482421874,760.6709048144531,199.20317482421876,760.6810448144531C199.82171482421876,761.3032448144531,200.49093482421875,761.8172248144531,201.30213482421874,762.2500648144531Z" fill="#F4C676" fill-opacity="1"/></g><g><path d="M222.27146904296876,766.9909042480468C222.27146904296876,767.2783342480469,222.23426904296875,767.6976342480468,222.18696904296874,768.0696042480469C222.05166904296874,769.0638042480468,221.70016904296875,769.2903042480468,220.40229904296876,769.3512042480469C219.37141904296874,769.4121042480468,218.35065904296874,769.4121042480468,217.31977904296875,769.3512042480469C216.14355904296875,769.2903042480468,215.61964904296875,769.0029042480469,215.61964904296875,767.8058442480469L215.61964904296875,763.8562542480469L214.89295904296876,764.1064842480469L214.63945904296875,763.1495242480469L214.04457904296876,763.1495242480469L214.04457904296876,766.7271442480469C214.47045904296874,766.5716042480469,214.85913904296876,766.4160442480469,215.21066904296876,766.2740242480469L215.40332904296875,767.3865442480469C214.28794904296876,767.8295242480468,212.93934904296876,768.3333642480469,211.64144004296875,768.8000142480469L211.35076904296875,767.6976342480468C211.82397104296874,767.5420942480469,212.35798904296874,767.3493442480469,212.90553904296874,767.1464542480469L212.90553904296874,763.1495142480469L211.65495304296874,763.1495142480469L211.65495304296874,761.9896542480469L212.90553904296874,761.9896542480469L212.90553904296874,759.0578892480469L214.04796904296876,759.1052352480468L214.04796904296876,761.9896542480469L215.07884904296876,761.9896542480469L215.07884904296876,762.8384142480469L215.62639904296876,762.6456742480469L215.62639904296876,759.9539942480469L216.74177904296874,760.0013442480468L216.74177904296874,762.2635642480469L217.85715904296876,761.8916042480469L217.85715904296876,758.8381042480469L218.97253904296875,758.8854502480468L218.97253904296875,761.5061142480469L221.49736904296876,760.6438342480469C221.49736904296876,760.8839242480469,221.35206904296876,764.9180642480469,221.35206904296876,765.1682842480469C221.29118904296874,766.1387742480468,221.07147904296875,766.3416742480468,220.03046904296875,766.4363542480469L219.50995904296875,766.4836942480468L219.12125904296875,765.3001742480469L219.50995904296875,765.2629842480469C220.12849904296874,765.2021142480469,220.20284904296875,765.0939042480469,220.23665904296874,764.6407842480469C220.27383904296875,764.3668842480469,220.33466904296876,762.5104442480468,220.33466904296876,762.2230142480469L218.97592904296874,762.6896642480468L218.97592904296874,767.3087942480469L217.86054904296876,767.3087942480469L217.86054904296876,763.0717742480468L216.74515904296874,763.4674142480469L216.74515904296874,767.3831942480468C216.74515904296874,768.1000642480469,216.89049904296874,768.1846042480469,217.61719904296876,768.2454742480469C218.39457904296876,768.3063342480468,219.19562904296876,768.2928142480469,219.93583904296875,768.2454742480469C220.95658904296874,768.1846042480469,221.00389904296875,768.1372642480469,221.06475904296875,767.4541942480469C221.10192904296875,767.2141142480468,221.11207904296876,766.8928642480469,221.11207904296876,766.6155842480468L222.27816904296876,766.9875542480469L222.27146904296876,766.9909042480468Z" fill="#F4C676" fill-opacity="1"/></g><g><path d="M237.47429982421875,760.5017731542969C237.47429982421875,761.0394231542969,237.23094982421875,767.4203231542969,237.23094982421875,767.8768231542969C237.17010982421874,769.0874331542968,236.71043982421875,769.3748331542969,235.37535982421875,769.4695331542969L234.34446982421875,769.5405331542969L233.96929982421875,768.2961331542969L234.99005982421875,768.2251231542969C235.83842982421874,768.1642531542968,236.03446982421875,768.0830931542969,236.07164982421875,767.2681631542969L236.25415982421876,761.7123531542969L233.74284982421875,761.7123531542969C233.49950982421876,762.2736831542969,233.23247982421876,762.8011931542969,232.92828982421875,763.2915231542969L231.98190982421875,762.6693231542969L231.98190982421875,769.3985331542968L227.57781982421875,769.3985331542968L227.57781982421875,760.4679631542969L228.86557982421874,760.4679631542969C229.04808982421875,759.8829531542968,229.23061982421876,759.1153601542969,229.32524982421876,758.6013756542969L230.58596982421875,758.8177971542968C230.50146982421876,759.2472441542968,230.34261982421876,759.9066431542968,230.16008982421874,760.4713531542968L231.98188982421874,760.4713531542968L231.98188982421874,762.4596831542968C232.69843982421875,761.2998331542968,233.31697982421875,759.7071331542969,233.57046982421875,758.5202331542969L234.76021982421875,758.7941341542969C234.62501982421875,759.3453211542969,234.44588982421874,759.9201731542969,234.22618982421875,760.5051731542969L237.47769982421875,760.5051731542969L237.47429982421875,760.5017731542969ZM228.73711982421875,761.6650031542969L228.73711982421875,764.1909931542968L230.81241982421875,764.1909931542968L230.81241982421875,761.6650031542969L228.73711982421875,761.6650031542969ZM230.81241982421875,768.1879331542968L230.81241982421875,765.3981931542969L228.73711982421875,765.3981931542969L228.73711982421875,768.1879331542968L230.81241982421875,768.1879331542968ZM234.46614982421875,766.1759331542969C234.04026982421874,765.4083331542969,233.20542982421875,764.2112831542969,232.69505982421876,763.5789431542969L233.54342982421875,762.8485331542969C234.14842982421874,763.5079331542969,234.98666982421875,764.6305831542969,235.47338982421874,765.3846631542968L234.46614982421875,766.1759331542969Z" fill="#F4C676" fill-opacity="1"/></g><g><path d="M244.76835314453126,766.2841472753906C244.40331314453124,767.1565672753907,243.78479314453125,768.2961472753906,243.26426914453126,769.0029072753906L242.37872314453125,768.4753672753907C242.88909914453126,767.8159672753907,243.50763314453124,766.7879972753906,243.79830314453125,765.9020472753906L244.76835314453126,766.2841472753906ZM246.22511314453126,765.7938372753906L246.22511314453126,768.3908272753906C246.22511314453126,769.3241072753906,245.98176314453124,769.4560072753907,244.90356314453126,769.5879072753906L244.44389314453124,769.6487072753906L244.06872314453125,768.4888972753906L244.54192314453124,768.4280272753906C244.97793314453125,768.3671672753907,245.09962314453125,768.2724872753906,245.09962314453125,767.8531672753907L245.09962314453125,765.7938372753906L242.91616614453125,765.7938372753906L242.91616614453125,764.7388072753906L245.09962314453125,764.7388072753906L245.09962314453125,763.6364372753907L242.77083014453126,763.6364372753907L242.77083014453126,762.5949372753906L244.05859314453124,762.5949372753906C244.01126314453126,762.0809472753906,243.95043314453125,761.3978772753907,243.88959314453126,760.9177172753906L243.08854614453125,760.9177172753906L243.08854614453125,759.8897372753906L245.06581314453126,759.8897372753906L244.77514314453126,758.8482352753906L245.88039314453124,758.7062072753906C245.97840314453126,758.9801082753906,246.11022314453126,759.4467572753906,246.24543314453126,759.8897372753906L248.19905314453126,759.8897372753906L248.19905314453126,760.9177172753906L247.47236314453124,760.9177172753906L247.28985314453126,762.5949372753906L248.46606314453126,762.5949372753906L248.46606314453126,763.6364372753907L246.23192314453124,763.6364372753907L246.23192314453124,764.7388072753906L248.28355314453125,764.7388072753906L248.28355314453125,765.7938372753906L246.23192314453124,765.7938372753906L246.22511314453126,765.7938372753906ZM244.93735314453124,760.9210872753906C244.99818314453125,761.4350772753907,245.07255314453124,762.0809372753906,245.11986314453125,762.5983072753907L246.20145314453126,762.5983072753907C246.28595314453125,762.0843272753906,246.36030314453126,761.4384572753906,246.39411314453125,760.9210872753906L244.93735314453124,760.9210872753906ZM247.43852314453125,768.2251372753906C247.20869314453125,767.7449572753907,246.60030314453124,766.9198772753906,246.27243314453125,766.5005672753906L247.08699314453125,765.9257072753907C247.43850314453124,766.3450072753906,247.96241314453124,767.0517472753907,248.25308314453125,767.5285372753906L247.43852314453125,768.2217372753906L247.43852314453125,768.2251372753906ZM253.40752314453124,763.8426972753906L252.18059314453126,763.8426972753906L252.18059314453126,769.5642072753906L251.02803314453126,769.5642072753906L251.02803314453126,763.8426972753906L249.81462314453125,763.8426972753906C249.81462314453125,766.7744672753906,249.60845314453124,768.0323872753906,248.37137314453125,769.8280072753906L247.26612314453126,769.2768072753906C248.46600314453124,767.6367472753906,248.68571314453126,766.5005672753906,248.68571314453126,763.5924772753906L248.68571314453126,759.8220972753907C250.08163314453125,759.6902152753906,251.64655314453125,759.3655942753907,252.67742314453125,758.9834822753907L253.05262314453125,760.1433372753906C252.21438314453124,760.4679572753906,250.92998314453126,760.7790572753906,249.81122314453125,760.9109372753907L249.81122314453125,762.7200372753906L253.40412314453124,762.7200372753906L253.40412314453124,763.8460772753906L253.40752314453124,763.8426972753906Z" fill="#F4C676" fill-opacity="1"/></g><g><path d="M268.24886478515623,767.9242292675781C268.24886478515623,769.1686192675782,267.87369478515626,769.4221992675781,266.56227478515626,769.5168992675781L265.59222478515625,769.5878992675781L265.27789478515626,768.4990792675782L266.24793478515625,768.4280692675782C266.95097478515623,768.3908792675782,267.0354747851562,768.2860392675781,267.0354747851562,767.7348592675781L267.0354747851562,760.4815392675781L259.99840478515625,760.4815392675781L259.99840478515625,769.5202992675781L258.80865478515625,769.5202992675781L258.80865478515625,759.3554992675781L268.24886478515623,759.3554992675781L268.24886478515623,767.9276092675781L268.24886478515623,767.9242292675781ZM260.61692478515624,762.6558492675781L260.61692478515624,761.6143492675782L266.45411478515626,761.6143492675782L266.45411478515626,762.6558492675781L260.61692478515624,762.6558492675781ZM265.83557478515627,763.7108792675781L265.83557478515627,767.6841392675781L261.19828478515626,767.6841392675781L261.19828478515626,763.7108792675781L265.83557478515627,763.7108792675781ZM262.27985478515626,766.6663092675781L264.75398478515626,766.6663092675781L264.75398478515626,764.7388492675781L262.27985478515626,764.7388492675781L262.27985478515626,766.6663092675781Z" fill="#F4C676" fill-opacity="1"/></g><g><path d="M284.41176669921873,766.6899617480469L279.99420669921875,766.6899617480469L279.99420669921875,768.0899017480468C279.99420669921875,769.2869417480468,279.5818666992187,769.4661417480469,278.27043669921875,769.5980417480469L277.40855669921876,769.6825417480469L277.03338669921874,768.4618717480469L278.0034266992187,768.3908617480469C278.6219666992188,768.3536717480468,278.70646669921877,768.2826517480469,278.70646669921877,767.7213217480469L278.70646669921877,766.6933417480469L273.95086669921875,766.6933417480469L273.95086669921875,765.5334917480469L278.70646669921877,765.5334917480469L278.70646669921877,765.0296517480468C279.03430669921875,764.8369017480469,280.4674266992188,764.0016717480469,280.73443669921875,764.0016717480469L275.90448669921875,764.0016717480469L275.90448669921875,762.8756317480469L282.73538669921874,762.8756317480469L282.73538669921874,764.0016717480469C282.32303669921873,764.0963517480469,280.61276669921875,765.1615217480469,279.99424669921876,765.5098217480469L279.99424669921876,765.5334917480469L284.41186669921876,765.5334917480469L284.41186669921876,766.6933417480469L284.41176669921873,766.6899617480469ZM275.48197669921876,763.2442017480469L274.29222469921876,763.2442017480469L274.29222469921876,760.7892317480469L276.05318669921877,760.7892317480469C275.77264669921874,760.2989117480469,275.44818669921875,759.7950717480469,275.09327669921873,759.2574097480468L276.16132669921876,758.7197527480469C276.55003669921877,759.2810827480469,277.00969669921875,759.9878117480469,277.33754669921876,760.5525317480469L276.96237669921874,760.7926117480469L278.89233669921873,760.7926117480469C278.61179669921876,760.2312817480469,278.3211266992187,759.6090897480469,278.03045669921875,759.0917197480469L279.0748666992188,758.6115417480469C279.37907669921873,759.1255267480469,279.79141669921876,759.9032817480469,280.1294166992187,760.5761917480469L279.76437669921876,760.7926117480469L280.81891669921873,760.7926117480469C281.33941669921876,760.0250217480469,281.80247669921874,759.3081307480469,282.14046669921873,758.7231367480468L283.2693866992187,759.2979967480469C282.97871669921875,759.7646417480469,282.61366669921875,760.2786317480469,282.26216669921877,760.7926217480468L284.07046669921874,760.7926217480468L284.07046669921874,763.2476017480469L282.90434669921876,763.2476017480469L282.90434669921876,761.9186717480469L275.47859669921877,761.9186717480469L275.47859669921877,763.2476017480469L275.48197669921876,763.2442017480469Z" fill="#F4C676" fill-opacity="1"/></g><g><path d="M290.08001708984375,767.5894522949219C290.08001708984375,766.8117022949219,290.2388650898437,766.6798222949219,291.0128880898437,766.6798222949219C291.78690708984374,766.6798222949219,291.95926708984376,766.8117022949219,291.95926708984376,767.5894522949219C291.95926708984376,768.3671922949219,291.7530970898438,768.5126022949219,291.0128880898437,768.5126022949219C290.23550208984375,768.5126022949219,290.08001708984375,768.3705722949219,290.08001708984375,767.5894522949219ZM290.1780489898438,760.1298522949219L291.86464708984374,760.1298522949219L291.6449370898437,765.6247922949219L290.3943500898437,765.6247922949219L290.17464508984375,760.1298522949219L290.1780489898438,760.1298522949219Z" fill="#F4C676" fill-opacity="1"/></g></g></g></g><g><g><g><path d="M192.6191630859375,897.0672032226562L-9.9078369140625,897.0672032226562L-9.9078369140625,799.5108032226562Q-1.9379069140625003,802.3681732226562,-0.9441969140625002,810.7577032226562Q18.9096630859375,804.7622832226563,26.849163085937498,823.9455032226563Q36.7760630859375,796.3727832226563,58.6139630859375,801.1677432226562Q80.4518630859375,805.9627132226562,80.4518630859375,832.3351032226562Q100.3061630859375,817.9501032226563,113.2101630859375,841.9250032226563Q125.1211630859375,827.5401032226563,139.0201630859375,841.9250032226563Q144.9751630859375,847.9204032226562,141.9971630859375,861.1049032226563Q154.9021630859375,857.5069032226562,157.8801630859375,874.2927032226562Q184.6791630859375,863.5024032226562,192.6221630859375,897.0705032226563L192.6191630859375,897.0672032226562Z" fill="url(#master_svgy_9_1226)" fill-opacity="1"/></g><g><path d="M351.69,944.9994780273438L-12,944.9994780273438L-12,872.0980780273437Q3.0374,869.3015780273438,8.0668,880.9474780273438Q16.4491,838.2458880273438,55.0008,840.1868711273438Q78.4679,840.1868711273438,90.203,871.2425780273437Q128.755,855.7147780273438,148.872,896.4753780273437Q157.17,865.9302780273438,182.398,871.2425780273437Q200.836,875.1245780273438,204.189,896.4753780273437Q222.626,873.1835780273437,244.41699999999997,888.7113780273437Q266.207,904.2392780273437,261.178,925.5900780273438Q274.586,912.0031780273438,289.674,927.5310780273437Q298.057,913.9441780273437,311.465,915.8851780273437C324.873,917.8261780273438,328.226,931.4130780273438,328.226,937.2359780273438Q341.634,929.4720780273437,351.693,944.9994780273438L351.69,944.9994780273438Z" fill="url(#master_svgz_9_1227)" fill-opacity="1"/></g></g><g><path d="M129.680873494375,936.3976665039063L429.996490234375,936.3976665039063L429.996490234375,823.3706665039062Q418.176490234375,826.6777865039063,416.706490234375,836.4029665039062Q387.267490234375,829.4573765039063,375.49149023437496,851.6805665039062Q360.771490234375,819.7355465039062,328.388490234375,825.2913565039063Q296.005490234375,830.8471665039062,296.005490234375,861.4024665039062Q266.56549023437503,844.7349665039062,247.43149023437502,872.5140665039063Q229.768490234375,855.8466665039062,209.160490234375,872.5140665039063Q200.32869023437502,879.4596665039062,204.746290234375,894.7372665039063Q185.612390234375,890.5712665039063,181.194790234375,910.0148665039062Q141.453290234375,897.5168665039063,129.677490234375,936.4036665039063L129.680873494375,936.3976665039063Z" fill="url(#master_svg10_9_1228)" fill-opacity="1"/></g></g></g></svg>