<svg xmlns="http://www.w3.org/2000/svg" xmlns:xlink="http://www.w3.org/1999/xlink" fill="none" version="1.1" width="355" height="731" viewBox="0 0 355 731"><defs><clipPath id="master_svg0_13_6379"><rect x="0" y="0" width="355" height="731" rx="0"/></clipPath></defs><g clip-path="url(#master_svg0_13_6379)"><g style="opacity:0.38999998569488525;"><path d="M314.61994384765626,1.3802490234375L38.47274384765625,1.3802490234375C17.02154384765625,1.3802490234375,1.37994384765625,14.1999490234375,1.37994384765625,41.3679490234375L1.37994384765625,729.6192490234375L353.61994384765626,729.6192490234375L353.61994384765626,50.7781490234375C353.61994384765626,23.6101490234375,336.0709438476562,1.3802490234375,314.61994384765626,1.3802490234375Z" fill="#FFFFFF" fill-opacity="1"/><path d="M354.99794384765624,730.9972490234375L354.99794384765624,50.7781490234375Q354.99794384765624,40.5482490234375,351.84894384765624,31.1600490234375Q348.8019438476563,22.0756490234375,343.24594384765624,15.0373490234375Q337.6599438476562,7.9627990234375,330.41594384765625,4.0646790234375Q322.86594384765624,0.002219023437499912,314.61994384765626,0.002219023437499912L38.47274384765625,0.002219023437499912Q30.07654384765625,0.002219023437499912,23.15734384765625,2.5123990234375Q16.00534384765625,5.1070090234375005,10.90706384765625,10.2123390234375Q5.61876384765625,15.5079490234375,2.86202384765625,23.1930490234375Q0.0019138476562499118,31.1663490234375,0.0019138476562499118,41.3679490234375L0.0019138476562499118,730.9972490234375L354.99794384765624,730.9972490234375ZM349.23594384765624,32.0364490234375Q352.2419438476563,40.9981490234375,352.2419438476563,50.7781490234375L352.2419438476563,728.2412490234375L2.75797384765625,728.2412490234375L2.75797384765625,41.3679490234375Q2.75797384765625,31.6456490234375,5.45623384765625,24.1236490234375Q8.00473384765625,17.0190490234375,12.85724384765625,12.1598490234375Q17.52194384765625,7.4886190234375,24.09724384765625,5.103239023437499Q30.56104384765625,2.7582790234375,38.47274384765625,2.7582790234375L314.61994384765626,2.7582890234375Q322.1719438476562,2.7582790234375,329.10994384765627,6.4916790234375Q335.85094384765625,10.1190690234375,341.08194384765625,16.7451490234375Q346.34194384765624,23.4069490234375,349.23594384765624,32.0364490234375Z" fill-rule="evenodd" fill="#FFFFFF" fill-opacity="1"/></g></g></svg>