<svg xmlns="http://www.w3.org/2000/svg" xmlns:xlink="http://www.w3.org/1999/xlink" fill="none" version="1.1" width="299.9932861328125" height="71.58294677734375" viewBox="0 0 299.9932861328125 71.58294677734375"><defs><radialGradient cx="0" cy="0" r="1" gradientUnits="userSpaceOnUse" id="master_svg0_9_015" gradientTransform="translate(149.99504101234197 35.79147720336914) rotate(0) scale(108.07473437287626 108.08051837627362)"><stop offset="0%" stop-color="#F5DC8A" stop-opacity="1"/><stop offset="41.999998688697815%" stop-color="#F8D379" stop-opacity="1"/><stop offset="100%" stop-color="#FFC45C" stop-opacity="1"/></radialGradient><linearGradient x1="0.4998796582221985" y1="1" x2="0.4998796582221985" y2="0.00011911852197954431" id="master_svg1_9_017"><stop offset="0%" stop-color="#E78139" stop-opacity="1"/><stop offset="14.000000059604645%" stop-color="#E1823E" stop-opacity="1"/><stop offset="31.999999284744263%" stop-color="#D1854F" stop-opacity="1"/><stop offset="51.99999809265137%" stop-color="#B88A6B" stop-opacity="1"/><stop offset="75%" stop-color="#949292" stop-opacity="1"/><stop offset="99.00000095367432%" stop-color="#679BC3" stop-opacity="1"/><stop offset="100%" stop-color="#649CC7" stop-opacity="1"/></linearGradient><linearGradient x1="0.5" y1="1" x2="0.5" y2="0.00012056908599333838" id="master_svg2_9_018"><stop offset="0%" stop-color="#E78139" stop-opacity="1"/><stop offset="14.000000059604645%" stop-color="#E1823E" stop-opacity="1"/><stop offset="31.999999284744263%" stop-color="#D1854F" stop-opacity="1"/><stop offset="51.99999809265137%" stop-color="#B88A6B" stop-opacity="1"/><stop offset="75%" stop-color="#949292" stop-opacity="1"/><stop offset="99.00000095367432%" stop-color="#679BC3" stop-opacity="1"/><stop offset="100%" stop-color="#649CC7" stop-opacity="1"/></linearGradient><linearGradient x1="0.5000596642494202" y1="1" x2="0.5000596642494202" y2="6.8833827526759706e-15" id="master_svg3_9_019"><stop offset="0%" stop-color="#E78139" stop-opacity="1"/><stop offset="14.000000059604645%" stop-color="#E1823E" stop-opacity="1"/><stop offset="31.999999284744263%" stop-color="#D1854F" stop-opacity="1"/><stop offset="51.99999809265137%" stop-color="#B88A6B" stop-opacity="1"/><stop offset="75%" stop-color="#949292" stop-opacity="1"/><stop offset="99.00000095367432%" stop-color="#679BC3" stop-opacity="1"/><stop offset="100%" stop-color="#649CC7" stop-opacity="1"/></linearGradient><linearGradient x1="0.5" y1="1" x2="0.5" y2="0.00012294073530938476" id="master_svg4_9_020"><stop offset="0%" stop-color="#E78139" stop-opacity="1"/><stop offset="14.000000059604645%" stop-color="#E1823E" stop-opacity="1"/><stop offset="31.999999284744263%" stop-color="#D1854F" stop-opacity="1"/><stop offset="51.99999809265137%" stop-color="#B88A6B" stop-opacity="1"/><stop offset="75%" stop-color="#949292" stop-opacity="1"/><stop offset="99.00000095367432%" stop-color="#679BC3" stop-opacity="1"/><stop offset="100%" stop-color="#649CC7" stop-opacity="1"/></linearGradient><linearGradient x1="0.5000605583190918" y1="1" x2="0.5000605583190918" y2="4.6629367034256575e-15" id="master_svg5_9_021"><stop offset="0%" stop-color="#E78139" stop-opacity="1"/><stop offset="14.000000059604645%" stop-color="#E1823E" stop-opacity="1"/><stop offset="31.999999284744263%" stop-color="#D1854F" stop-opacity="1"/><stop offset="51.99999809265137%" stop-color="#B88A6B" stop-opacity="1"/><stop offset="75%" stop-color="#949292" stop-opacity="1"/><stop offset="99.00000095367432%" stop-color="#679BC3" stop-opacity="1"/><stop offset="100%" stop-color="#649CC7" stop-opacity="1"/></linearGradient><linearGradient x1="0.5" y1="1" x2="0.5" y2="7.438494264988549e-15" id="master_svg6_9_022"><stop offset="0%" stop-color="#E78139" stop-opacity="1"/><stop offset="14.000000059604645%" stop-color="#E1823E" stop-opacity="1"/><stop offset="31.999999284744263%" stop-color="#D1854F" stop-opacity="1"/><stop offset="51.99999809265137%" stop-color="#B88A6B" stop-opacity="1"/><stop offset="75%" stop-color="#949292" stop-opacity="1"/><stop offset="99.00000095367432%" stop-color="#679BC3" stop-opacity="1"/><stop offset="100%" stop-color="#649CC7" stop-opacity="1"/></linearGradient><linearGradient x1="0.5000594854354858" y1="0.9998798966407776" x2="0.5000594854354858" y2="-5.88418203051333e-15" id="master_svg7_9_023"><stop offset="0%" stop-color="#E78139" stop-opacity="1"/><stop offset="14.000000059604645%" stop-color="#E1823E" stop-opacity="1"/><stop offset="31.999999284744263%" stop-color="#D1854F" stop-opacity="1"/><stop offset="51.99999809265137%" stop-color="#B88A6B" stop-opacity="1"/><stop offset="75%" stop-color="#949292" stop-opacity="1"/><stop offset="99.00000095367432%" stop-color="#679BC3" stop-opacity="1"/><stop offset="100%" stop-color="#649CC7" stop-opacity="1"/></linearGradient><linearGradient x1="0.5" y1="1" x2="0.5" y2="0.00011983223521383479" id="master_svg8_9_024"><stop offset="0%" stop-color="#E78139" stop-opacity="1"/><stop offset="14.000000059604645%" stop-color="#E1823E" stop-opacity="1"/><stop offset="31.999999284744263%" stop-color="#D1854F" stop-opacity="1"/><stop offset="51.99999809265137%" stop-color="#B88A6B" stop-opacity="1"/><stop offset="75%" stop-color="#949292" stop-opacity="1"/><stop offset="99.00000095367432%" stop-color="#679BC3" stop-opacity="1"/><stop offset="100%" stop-color="#649CC7" stop-opacity="1"/></linearGradient></defs><g><g><rect x="1.137939453125" y="1.137939453125" width="297.71746826171875" height="69.30707550048828" rx="27.15057945251465" fill="url(#master_svg0_9_015)" fill-opacity="1"/><rect x="1.137939453125" y="1.137939453125" width="297.71746826171875" height="69.30707550048828" rx="27.15057945251465" fill-opacity="0" stroke-opacity="1" stroke="#D34100" fill="none" stroke-width="2.2758238315582275"/></g><g><g><g><path d="M43.62895859619141,41.924541503906255L47.01362859619141,43.35594150390625C46.13322859619141,45.28294150390625,44.99521859619141,47.50994150390625,43.602868596191406,50.04014150390625L40.384498596191406,48.33494150390625C41.64967859619141,46.09814150390625,42.732248596191404,43.96244150390625,43.63221859619141,41.924541503906255L43.62895859619141,41.924541503906255ZM43.492008596191404,30.646201503906248L51.63409859619141,30.646201503906248L51.63409859619141,22.66754150390625L55.540498596191405,22.66754150390625L55.540498596191405,24.97930150390625L67.0672985961914,24.97930150390625L67.0672985961914,28.44530150390625L55.540498596191405,28.44530150390625L55.540498596191405,30.646201503906248L64.84019859619141,30.646201503906248L64.84019859619141,41.09964150390625L43.492008596191404,41.09964150390625L43.492008596191404,30.646201503906248ZM60.82299859619141,34.00134150390625L47.509268596191404,34.00134150390625L47.509268596191404,37.74124150390625L60.82299859619141,37.74124150390625L60.82299859619141,34.00134150390625ZM51.46779859619141,42.394141503906255C52.32869859619141,44.66674150390625,53.0264985961914,46.63934150390625,53.55799859619141,48.30884150390625L49.980928596191404,49.21524150390625C49.2276985961914,46.77634150390625,48.578798596191405,44.81344150390625,48.02772859619141,43.32984150390625L51.46779859619141,42.394141503906255ZM57.95999859619141,42.11694150390625C58.7653985961914,43.89724150390625,59.574098596191405,45.820941503906255,60.37949859619141,47.894741503906246L56.776398596191406,48.99354150390625C56.098098596191406,46.994741503906255,55.36439859619141,45.061241503906245,54.5752985961914,43.189641503906245L57.95999859619141,42.11694150390625ZM64.2891985961914,41.70614150390625C65.4434985961914,43.887441503906246,66.50969859619141,46.08834150390625,67.48139859619141,48.30884150390625L64.04129859619141,49.655441503906246C62.942498596191406,47.16104150390625,61.92179859619141,44.96994150390625,60.989298596191404,43.082041503906254L64.2891985961914,41.70614150390625Z" fill="url(#master_svg1_9_017)" fill-opacity="1"/></g><g><path d="M90.22196275634766,49.68154462890625L90.22196275634766,48.30564462890625L71.84432275634765,48.30564462890625L71.84432275634765,39.06184462890625L75.75071275634765,39.06184462890625L75.75071275634765,44.67334462890625L80.95166275634766,44.67334462890625L80.95166275634766,37.21964462890625L69.48026275634766,37.21964462890625L69.48026275634766,33.53184462890625L80.95166275634766,33.53184462890625L80.95166275634766,30.20281462890625L71.07477275634766,30.20281462890625L71.07477275634766,26.51834462890625L80.95166275634766,26.51834462890625L80.95166275634766,22.63824462890625L84.96886275634766,22.63824462890625L84.96886275634766,26.51834462890625L94.95656275634765,26.51834462890625L94.95656275634765,30.20281462890625L84.96886275634766,30.20281462890625L84.96886275634766,33.53184462890625L96.41416275634765,33.53184462890625L96.41416275634765,37.21964462890625L84.96886275634766,37.21964462890625L84.96886275634766,44.67334462890625L90.22196275634766,44.67334462890625L90.22196275634766,39.06184462890625L94.12836275634766,39.06184462890625L94.12836275634766,49.68154462890625L90.22196275634766,49.68154462890625Z" fill="url(#master_svg2_9_018)" fill-opacity="1"/></g><g><path d="M101.74222912353515,44.12549755859375L101.74222912353515,34.09919755859375C101.03463912353516,34.42199755859375,100.30096912353515,34.72849755859375,99.54121912353516,35.02199755859375C99.19231312353516,33.90359755859375,98.77168112353516,32.83089755859375,98.27603912353516,31.803767558593748C101.87917912353515,30.79624755859375,104.84647912353516,29.43005755859375,107.17466912353515,27.70520755859375L99.31948912353516,27.70520755859375L99.31948912353516,24.92718755859375L110.18763912353515,24.92718755859375L110.18763912353515,22.55999755859375L113.73533912353516,22.55999755859375L113.73533912353516,24.92718755859375L124.62953912353515,24.92718755859375L124.62953912353515,27.70520755859375L116.37653912353515,27.70520755859375C118.64273912353516,29.37462755859375,121.71443912353516,30.56474755859375,125.59143912353515,31.28207755859375C125.18713912353516,32.25372755859375,124.78603912353516,33.38189755859375,124.38173912353516,34.66659755859375C123.60243912353516,34.42849755859375,122.85893912353515,34.17749755859375,122.15463912353516,33.91009755859375L122.15463912353516,44.128797558593746L101.74223912353516,44.128797558593746L101.74222912353515,44.12549755859375ZM125.09903912353516,48.80119755859375L98.77168112353516,48.80119755859375L98.77168112353516,45.609097558593746L125.09903912353516,45.609097558593746L125.09903912353516,48.80119755859375ZM113.73533912353516,28.54317755859375L113.73533912353516,31.96679755859375L110.18763912353515,31.96679755859375L110.18763912353515,28.66708755859375C108.78543912353516,30.05283755859375,107.01162912353516,31.34402755859375,104.86278912353515,32.54718755859375L119.05683912353516,32.54718755859375C116.82983912353515,31.399457558593753,115.05263912353516,30.06587755859375,113.73203912353516,28.54317755859375L113.73533912353516,28.54317755859375ZM118.52213912353515,35.32189755859375L105.37144912353516,35.32189755859375L105.37144912353516,37.05659755859375L118.52213912353515,37.05659755859375L118.52213912353515,35.32189755859375ZM118.52213912353515,41.34749755859375L118.52213912353515,39.61289755859375L105.37144912353516,39.61289755859375L105.37144912353516,41.34749755859375L118.52213912353515,41.34749755859375Z" fill="url(#master_svg3_9_019)" fill-opacity="1"/></g><g><path d="M132.24342918212892,49.79241298828125L132.24342918212892,41.099712988281254C131.1967191821289,42.05501298828125,130.0782791821289,42.981112988281254,128.8880991821289,43.877712988281246C128.4478891821289,42.46591298828125,127.9424791821289,41.125812988281254,127.3750991821289,39.86071298828125C130.0717491821289,38.21081298828125,132.2955891821289,36.32951298828125,134.0466191821289,34.21991298828125L127.4566182821289,34.21991298828125L127.4566182821289,31.71574298828125L135.84656918212892,31.71574298828125C136.12046918212891,31.25599298828125,136.3845891821289,30.78973298828125,136.6291491821289,30.31368298828125L129.5467691821289,30.31368298828125L129.5467691821289,27.94649298828125L137.6497991821289,27.94649298828125C137.8062991821289,27.52588298828125,137.9431991821289,27.09874298828125,138.06389918212892,26.66834298828125L129.3022091821289,26.87376298828125C129.1913491821289,25.82711298828125,129.0446091821289,24.84893298828125,128.8620091821289,23.92945098828125C138.03129918212892,23.87402098828125,145.9646991821289,23.65556298828125,152.6590991821289,23.27081298828125L153.2361991821289,26.18578298828125L142.06809918212892,26.55748298828125C141.9115991821289,27.02375298828125,141.7484991821289,27.48675298828125,141.5724991821289,27.94650298828125L152.5481991821289,27.94650298828125L152.5481991821289,30.31368298828125L140.5387991821289,30.31368298828125C140.3105991821289,30.78973298828125,140.0659991821289,31.25926298828125,139.8083991821289,31.71574298828125L154.6350991821289,31.71574298828125L154.6350991821289,34.21991298828125L138.2790991821289,34.21991298828125C137.9855991821289,34.65031298828125,137.6823991821289,35.07411298828125,137.3726091821289,35.48501298828125L151.9123991821289,35.48501298828125L151.9123991821289,49.78921298828125L148.1428991821289,49.78921298828125L148.1428991821289,48.74251298828125L136.0096091821289,48.74251298828125L136.0096091821289,49.78921298828125L132.2401691821289,49.78921298828125L132.24342918212892,49.79241298828125ZM148.1428991821289,38.07391298828125L136.0095991821289,38.07391298828125L136.0095991821289,39.47591298828125L148.1428991821289,39.47591298828125L148.1428991821289,38.07391298828125ZM136.0128691821289,42.80501298828125L148.1461991821289,42.80501298828125L148.1461991821289,41.40291298828125L136.0128691821289,41.40291298828125L136.0128691821289,42.80501298828125ZM136.0128691821289,46.16341298828125L148.1461991821289,46.16341298828125L148.1461991821289,44.732012988281255L136.0128691821289,44.732012988281255L136.0128691821289,46.16341298828125Z" fill="url(#master_svg4_9_020)" fill-opacity="1"/></g><g><path d="M156.69266510009766,40.57798037109375L167.97166510009765,40.57798037109375L167.97166510009765,37.52608037109375L171.98896510009766,37.52608037109375L171.98896510009766,40.57798037109375L183.40486510009765,40.57798037109375L183.40486510009765,44.15488037109375L171.98896510009766,44.15488037109375L171.98896510009766,49.655480371093745L167.97166510009765,49.655480371093745L167.97166510009765,44.15488037109375L156.69267505115766,44.15488037109375L156.69266510009766,40.57798037109375ZM168.74116510009765,31.115790371093752C168.88796510009766,32.49176037109375,169.09006510009766,33.77638037109375,169.34766510009766,34.96658037109375C165.05652510009764,36.32298037109375,161.84466510009764,37.58158037109375,159.71865510009766,38.73578037109375L157.93175510009766,35.73608037109375C158.57412510009766,35.093680371093754,158.89368510009766,34.24918037109375,158.89368510009766,33.20578037109375L158.89368510009766,22.86323637109375L162.68921510009767,22.86323637109375L162.68921510009767,26.11078037109375L169.09986510009765,26.11078037109375L169.09986510009765,29.57679037109375L162.68920510009767,29.57679037109375L162.68920510009767,33.29058037109375C164.57718510009767,32.64826037109375,166.59560510009766,31.92441037109375,168.74116510009765,31.115790371093752ZM182.96466510009765,26.32924037109375C180.06576510009765,27.78673037109375,177.17676510009767,29.14313037109375,174.29756510009764,30.40172037109375L174.29756510009764,32.68413037109375C174.29756510009764,33.544880371093754,174.72796510009766,33.97858037109375,175.59206510009767,33.97858037109375L178.28866510009766,33.97858037109375C178.84626510009767,33.97858037109375,179.23436510009765,33.77638037109375,179.44956510009766,33.37208037109375C179.66476510009767,32.96778037109375,179.87346510009766,31.67661037109375,180.07556510009766,29.49201037109375C181.39616510009765,30.05936037109375,182.57986510009766,30.52888037109375,183.62326510009765,30.89407037109375C183.26466510009766,33.306880371093754,182.94836510009765,34.82638037109375,182.67446510009765,35.45238037109375C182.40056510009765,36.07838037109375,181.94406510009765,36.554480371093746,181.30486510009766,36.87728037109375C180.66906510009767,37.19678037109375,179.85386510009766,37.35978037109375,178.86256510009764,37.35978037109375L174.29756510009764,37.35978037109375C171.76716510009766,37.35978037109375,170.50196510009766,36.04908037109375,170.50196510009766,33.427580371093754L170.50196510009766,22.75238037109375L174.29756510009764,22.75238037109375L174.29756510009764,26.795510371093748C176.41706510009766,25.68691037109375,178.50716510009767,24.52288037109375,180.57126510009766,23.30342037109375L182.96466510009765,26.32924037109375Z" fill="url(#master_svg5_9_021)" fill-opacity="1"/></g><g><path d="M193.24579146728516,23.11102543684875L197.26304146728515,23.11102543684875L197.26304146728515,44.732022949218745L200.78464146728516,44.732022949218745L200.78464146728516,23.11102543684875L204.74654146728517,23.11102543684875L204.74654146728517,37.97932294921875C206.23994146728515,35.00892294921875,207.69754146728516,31.58203294921875,209.11914146728515,27.70519294921875L212.66694146728514,29.21810294921875C211.27454146728516,32.70367294921875,209.60504146728516,36.47942294921875,207.66164146728516,40.55192294921875L204.74654146728517,39.18902294921875L204.74654146728517,44.732022949218745L212.67014146728516,44.732022949218745L212.67014146728516,48.50122294921875L185.48844146728516,48.50122294921875L185.48844146728516,44.732022949218745L193.24579146728516,44.732022949218745L193.24579146728516,39.286822949218745L190.16436146728515,40.607322949218755C188.66116146728515,36.33272294921875,187.15795146728516,32.41022294921875,185.65145946728515,28.83335294921875L188.95135146728515,27.32044294921875C190.53934146728517,30.87774294921875,191.96756146728515,34.30792294921875,193.24250146728517,37.60762294921875L193.24250146728517,23.11102294921875L193.24579146728516,23.11102543684875Z" fill="url(#master_svg6_9_022)" fill-opacity="1"/></g><g><path d="M214.77986395166016,27.48351052734375L217.75041795166015,27.48351052734375L217.75041795166015,22.64154052734375L221.29812795166015,22.64154052734375L221.29812795166015,27.48351052734375L224.02085795166016,27.48351052734375L224.02085795166016,31.06038052734375L221.29812795166015,31.06038052734375L221.29812795166015,35.28284052734375C222.29917795166017,35.080640527343746,223.25131795166016,34.87524052734375,224.15781795166015,34.66334052734375C224.06650795166016,36.27734052734375,224.03064795166017,37.496740527343746,224.04694795166014,38.32174052734375L221.29485795166016,38.95424052734375L221.29485795166016,46.108040527343746C221.29485795166016,47.33724052734375,220.96878795166015,48.23394052734375,220.31662795166017,48.80454052734375C219.66447795166016,49.37184052734375,218.08301795166017,49.65874052734375,215.57222795166015,49.65874052734375C215.38962795166015,48.75884052734375,215.07658395166015,47.51334052734375,214.63638895166017,45.91884052734375C215.35049695166015,45.97434052734375,215.96678795166017,46.00044052734375,216.47872795166015,46.00044052734375C216.96457795166015,46.00044052734375,217.29391795166015,45.902540527343746,217.46998795166016,45.70364052734375C217.64282795166017,45.50804052734375,217.73737795166016,45.165640527343754,217.74390795166016,44.67984052734375L217.74390795166016,39.81184052734375L214.77335595166016,40.55524052734375L214.38858795166016,36.56754052734375L217.74390795166016,35.99034052734375L217.74390795166016,31.066900527343748L214.77335595166016,31.066900527343748L214.77335595166016,27.490030527343748L214.77986395166016,27.48351052734375ZM240.47468795166014,33.56454052734375L240.47468795166014,36.64574052734375C239.65948795166017,39.25754052734375,238.43998795166016,41.61164052734375,236.81608795166017,43.70164052734375C238.29328795166015,44.68314052734375,239.95298795166016,45.47544052734375,241.79528795166016,46.08194052734375C241.11708795166015,47.10904052734375,240.34748795166016,48.34804052734375,239.48338795166015,49.79574052734375C237.64108795166015,48.87954052734375,235.94868795166016,47.72854052734375,234.40638795166015,46.34274052734375C233.04988795166017,47.607840527343754,231.50428795166016,48.75884052734375,229.76958795166016,49.79574052734375C229.44028795166017,49.15334052734375,228.97068795166015,48.39364052734375,228.36748795166017,47.51334052734375L228.36748795166017,49.74034052734375L224.73498795166014,49.74034052734375L224.73498795166014,23.68819052734375L240.11268795166015,23.68819052734375C240.08668795166017,25.54998052734375,240.02138795166016,27.12159052734375,239.92028795166016,28.40626052734375C239.81928795166016,29.69093052734375,239.40508795166016,30.66258052734375,238.68128795166015,31.32123052734375C237.95738795166017,31.97986052734375,236.97918795166015,32.31897052734375,235.74978795166015,32.33201052734375C234.52048795166016,32.34505052734375,232.99448795166015,32.34505052734375,231.16848795166015,32.325490527343746C231.02168795166017,31.373400527343748,230.77388795166016,30.24523052734375,230.42498795166017,28.94100052734375C232.00968795166017,29.05186052734375,233.31398795166015,29.10729052734375,234.33138795166016,29.10729052734375C235.02918795166016,29.10729052734375,235.52478795166016,28.97034052734375,235.81828795166015,28.693190527343752C236.11178795166015,28.41931052734375,236.25848795166016,27.83240052734375,236.25848795166016,26.93248052734375L228.36418795166014,26.93248052734375L228.36418795166014,33.56124052734375L240.46808795166015,33.56124052734375L240.47468795166014,33.56454052734375ZM230.98258795166015,37.00114052734375C231.83688795166015,38.71624052734375,232.89988795166016,40.219340527343746,234.17488795166017,41.513840527343746C235.31288795166014,40.137840527343755,236.15418795166016,38.56954052734375,236.70518795166015,36.80884052734375L228.37068795166016,36.80884052734375L228.37068795166016,45.81784052734375C229.68158795166016,45.20484052734375,230.85538795166016,44.50374052734375,231.89238795166017,43.71474052734375C230.67278795166015,42.23764052734375,229.57068795166015,40.578040527343745,228.59248795166016,38.735840527343754L230.98588795166015,37.00114052734375L230.98258795166015,37.00114052734375Z" fill="url(#master_svg7_9_023)" fill-opacity="1"/></g><g><path d="M243.68326568603516,32.40694166015625L246.87554568603517,32.40694166015625C246.03099568603517,31.84938166015625,245.12451568603515,31.314641660156248,244.15281668603515,30.81251166015625C246.02449568603515,28.48445166015625,247.41684568603515,25.859681660156248,248.33311568603514,22.94471266015625L251.99168568603517,23.90658166015625C251.70799568603516,24.66630166015625,251.42431568603516,25.39341166015625,251.13736568603517,26.07814166015625L255.59486568603515,26.07814166015625L255.59486568603515,22.55670166015625L259.55666568603516,22.55670166015625L259.55666568603516,26.07814166015625L269.1041656860352,26.07814166015625L269.1041656860352,29.37785166015625L259.55666568603516,29.37785166015625L259.55666568603516,32.40368166015625L270.64326568603514,32.40368166015625L270.64326568603514,35.703401660156246L243.68326568603516,35.703401660156246L243.68326568603516,32.40368166015625L243.68326568603516,32.40694166015625ZM246.73859568603515,49.766301660156245L246.73859568603515,37.689101660156254L267.59116568603514,37.689101660156254L267.59116568603514,49.766301660156245L263.85106568603516,49.766301660156245L263.85106568603516,48.30880166015625L250.48196568603515,48.30880166015625L250.48196568603515,49.766301660156245L246.74188568603515,49.766301660156245L246.73859568603515,49.766301660156245ZM247.67443568603517,32.40694166015625L255.59806568603517,32.40694166015625L255.59806568603517,29.38111166015625L249.55914568603515,29.38111166015625C248.95264568603517,30.50928166015625,248.32656568603517,31.51680166015625,247.67443568603517,32.40694166015625ZM263.84776568603513,41.09970166015625L250.47868568603516,41.09970166015625L250.47868568603516,44.895001660156254L263.84776568603513,44.895001660156254L263.84776568603513,41.09970166015625Z" fill="url(#master_svg8_9_024)" fill-opacity="1"/></g></g></g></g></svg>