<svg xmlns="http://www.w3.org/2000/svg" xmlns:xlink="http://www.w3.org/1999/xlink" fill="none" version="1.1" width="430" height="932" viewBox="0 0 430 932"><defs><clipPath id="master_svg0_85_252"><rect x="0" y="0" width="430" height="932" rx="0"/></clipPath><linearGradient x1="0.5000048279762268" y1="0.7859982252120972" x2="0.5000048279762268" y2="0.002377656288444996" id="master_svg1_85_301"><stop offset="0%" stop-color="#FE1718" stop-opacity="0.30000001192092896"/><stop offset="1.9999999552965164%" stop-color="#FE1D1E" stop-opacity="0.3400000035762787"/><stop offset="7.000000029802322%" stop-color="#FE2D2E" stop-opacity="0.4399999976158142"/><stop offset="11.999999731779099%" stop-color="#FE4748" stop-opacity="0.6100000143051147"/><stop offset="18.000000715255737%" stop-color="#FE6B6C" stop-opacity="0.8399999737739563"/><stop offset="21.99999988079071%" stop-color="#FF8485" stop-opacity="1"/><stop offset="62.99999952316284%" stop-color="#FFDEA2" stop-opacity="1"/><stop offset="98.00000190734863%" stop-color="#F9E6C9" stop-opacity="1"/></linearGradient></defs><g clip-path="url(#master_svg0_85_252)"><g><path d="M239.30234765625,914.387L-3.49365234375,914.387L-3.49365234375,798Q6.062387656249999,801.40703,7.252147656249999,811.4199Q31.051147656250002,804.27029,40.57334765625,827.1509Q52.47504765625,794.25737,78.65354765625,799.97964Q104.83234765625,805.70192,104.83234765625,837.1638Q128.63134765625,820.0012,144.10234765625,848.6041Q158.38334765625,831.4415,175.04334765625,848.6041Q182.18234765625,855.7538,178.61334765625,871.4847Q194.08434765625,867.1941,197.65334765625,887.2157Q229.78434765625,874.3437,239.30234765625,914.387Z" fill="#E0535E" fill-opacity="1"/></g><g><path d="M430,971.5710864257812L-6,971.5710864257812L-6,884.5987864257812Q12.028199999999998,881.2596864257813,18.0531,895.1554864257812Q28.100299999999997,844.2114864257812,74.3181,846.5267354257812Q102.453,846.5267354257812,116.518,883.5749864257813Q162.736,865.0486864257813,186.852,913.6774864257812Q196.798,877.2366864257813,227.041,883.5749864257813Q249.147,888.2054864257813,253.16500000000002,913.6774864257812Q275.27,885.8901864257813,301.394,904.4164864257813Q327.517,922.9426864257813,321.488,948.4150864257813Q337.564,932.2036864257813,355.647,950.7300864257812Q365.695,934.5188864257813,381.771,936.8341864257812C397.847,939.1493864257812,401.865,955.3600864257812,401.865,962.3060864257812Q417.942,953.0450864257813,430,971.5670864257812L430,971.5710864257812Z" fill="url(#master_svg1_85_301)" fill-opacity="1"/></g></g></svg>